<?xml version="1.0" encoding="UTF-8"?>
<svg version="1.1" xmlns="http://www.w3.org/2000/svg" width="1024" height="1024">
<path d="M0 0 C1.30185242 -0.00637985 2.60370483 -0.0127597 3.94500732 -0.01933289 C5.37381961 -0.02086197 6.80263239 -0.02197571 8.23144531 -0.02270508 C9.69394972 -0.02591813 11.1564538 -0.02928224 12.61895752 -0.03279114 C15.68901311 -0.03878566 18.75904053 -0.04063082 21.82910156 -0.04003906 C25.75428004 -0.03993768 29.67927662 -0.05356315 33.60441208 -0.07081127 C36.62767355 -0.08195901 39.65089153 -0.08395738 42.67417145 -0.08342934 C44.12058384 -0.0846063 45.56699747 -0.08901212 47.01338959 -0.0967617 C49.04275667 -0.10661245 51.07217707 -0.10240623 53.1015625 -0.09765625 C54.25468933 -0.09908127 55.40781616 -0.10050629 56.59588623 -0.10197449 C60.07671843 0.16581616 64.22112567 0.55681903 66.80957031 3.14526367 C66.96447704 5.63833787 67.05604316 8.10658861 67.10668945 10.60253906 C67.12634262 11.38297073 67.14599579 12.1634024 67.16624451 12.96748352 C67.23035579 15.55920665 67.28755325 18.1510352 67.34472656 20.74291992 C67.38771406 22.53512069 67.43113049 24.32731121 67.47496033 26.11949158 C67.58938966 30.84586353 67.69796701 35.57235277 67.80535889 40.29888916 C67.91588396 45.1182071 68.03189786 49.93739249 68.14746094 54.7565918 C68.37356052 64.21936028 68.59348305 73.68226163 68.80957031 83.14526367 C69.81815094 83.27296143 70.82673157 83.40065918 71.86587524 83.53222656 C73.21382637 83.706468 74.56175616 83.8808746 75.90966797 84.05541992 C76.90239464 84.18043884 76.90239464 84.18043884 77.91517639 84.3079834 C84.14254889 85.12042599 90.12424529 86.53237085 96.18457031 88.14526367 C98.19210397 88.66717075 100.19991261 89.18802138 102.20800781 89.70776367 C103.14870117 89.95268555 104.08939453 90.19760742 105.05859375 90.44995117 C108.958249 91.43559354 112.87757285 92.2986224 116.80957031 93.14526367 C127.68126021 76.0552966 138.33325088 58.83103693 148.83691406 41.51245117 C149.4745166 40.46154297 150.11211914 39.41063477 150.76904297 38.32788086 C151.9752238 36.33760303 153.17942984 34.34612662 154.38134766 32.35327148 C154.92098145 31.46220703 155.46061523 30.57114258 156.01660156 29.65307617 C156.48557861 28.87593262 156.95455566 28.09878906 157.43774414 27.2980957 C160.14055426 23.05652609 160.14055426 23.05652609 161.80957031 21.14526367 C167.46519039 20.33140615 171.60649238 22.01727851 176.55957031 24.52026367 C177.65930176 25.05719849 177.65930176 25.05719849 178.78125 25.60498047 C186.68912786 29.50124038 194.47316586 33.64046938 202.25048828 37.78930664 C204.98254664 39.23691703 207.72463861 40.66393085 210.46972656 42.08666992 C211.41235352 42.57611084 212.35498047 43.06555176 213.32617188 43.56982422 C215.14328584 44.51249572 216.96158278 45.45289161 218.78125 46.390625 C223.30488433 48.74416118 227.73063358 51.07108949 231.80957031 54.14526367 C231.80957031 54.80526367 231.80957031 55.46526367 231.80957031 56.14526367 C232.57269531 56.41338867 233.33582031 56.68151367 234.12207031 56.95776367 C238.30609003 58.80651657 238.30609003 58.80651657 239.80957031 61.14526367 C239.40988346 65.99059024 237.82213717 69.47643082 235.49707031 73.70776367 C234.9735498 74.66453003 234.9735498 74.66453003 234.43945312 75.640625 C233.24180907 77.81593242 232.02764812 79.98133525 230.80957031 82.14526367 C230.3611377 82.94480469 229.91270508 83.7443457 229.45068359 84.56811523 C223.43978541 95.25737513 217.23927851 105.82211038 210.89526367 116.31665039 C207.90251382 121.27992084 205.04360483 126.28544954 202.32128906 131.40307617 C199.00267819 137.42288194 195.37711727 143.27070301 191.80957031 149.14526367 C192.33292969 149.36053711 192.85628906 149.57581055 193.39550781 149.79760742 C196.7658385 151.67910271 199.54280011 154.17873787 202.43457031 156.70776367 C203.05122559 157.24208008 203.66788086 157.77639648 204.30322266 158.3269043 C218.92800026 171.03486055 218.92800026 171.03486055 221.64550781 174.45776367 C223.7698079 176.46069778 223.7698079 176.46069778 226.98535156 176.21557617 C231.85056579 174.85391254 235.70615723 172.64011098 239.99707031 170.02026367 C240.82843506 169.5261499 241.6597998 169.03203613 242.51635742 168.52294922 C244.95337687 167.07339371 247.38188802 165.61038583 249.80957031 164.14526367 C252.15922412 162.74150782 254.5142823 161.34788808 256.87207031 159.95776367 C257.79117188 159.40733398 258.71027344 158.8569043 259.65722656 158.28979492 C261.80957031 157.14526367 261.80957031 157.14526367 263.80957031 157.14526367 C264.13957031 156.15526367 264.46957031 155.16526367 264.80957031 154.14526367 C267.23950195 152.57055664 267.23950195 152.57055664 270.46972656 150.88745117 C271.04686905 150.58291016 271.62401154 150.27836914 272.21864319 149.96459961 C274.09873128 148.9745282 275.98531686 147.99756324 277.87207031 147.02026367 C279.80583962 146.00542398 281.73777274 144.98715117 283.66955566 143.96853638 C284.94593683 143.29566727 286.22287293 142.62384976 287.50036621 141.95309448 C292.36355363 139.39621755 297.16493053 136.74671479 301.93457031 134.02026367 C316.66287079 125.68193855 316.66287079 125.68193855 322.05957031 124.33276367 C326.67449881 125.69626527 328.27908141 129.22995777 330.80957031 133.14526367 C331.63875426 134.35555266 332.47102173 135.56373244 333.30566406 136.77026367 C334.20397426 138.0819599 335.10110224 139.39446652 335.99707031 140.70776367 C336.42536133 141.33239502 336.85365234 141.95702637 337.29492188 142.60058594 C339.2489919 145.52134589 340.84419027 148.22684052 342.22363281 151.47729492 C344.34717768 156.38864623 347.14387823 160.75390024 349.99707031 165.27026367 C351.16380985 167.13610352 352.33047661 169.00198888 353.49707031 170.86791992 C354.34591797 172.21974365 354.34591797 172.21974365 355.21191406 173.59887695 C357.32077877 176.96004121 359.41326308 180.33102489 361.49707031 183.70776367 C362.0990625 184.67842773 362.70105469 185.6490918 363.32128906 186.64916992 C363.81242188 187.47288086 364.30355469 188.2965918 364.80957031 189.14526367 C365.22851562 189.81428711 365.64746094 190.48331055 366.07910156 191.17260742 C367.10937965 193.95490922 366.84860046 195.37451661 365.80957031 198.14526367 C363.62207031 200.20776367 363.62207031 200.20776367 360.80957031 202.14526367 C359.80925781 202.83620117 358.80894531 203.52713867 357.77832031 204.23901367 C354.63952922 206.25444795 351.4479076 208.04624712 348.14941406 209.78198242 C344.2388669 212.06041474 340.69252939 214.83347625 337.09472656 217.57104492 C334.80957031 219.14526367 334.80957031 219.14526367 332.80957031 219.14526367 C332.80957031 219.80526367 332.80957031 220.46526367 332.80957031 221.14526367 C331.38644531 221.91870117 331.38644531 221.91870117 329.93457031 222.70776367 C325.72373674 225.09304159 321.853584 227.90644205 317.94628906 230.75463867 C315.80957031 232.14526367 315.80957031 232.14526367 313.80957031 232.14526367 C313.80957031 232.80526367 313.80957031 233.46526367 313.80957031 234.14526367 C312.79894531 234.70213867 311.78832031 235.25901367 310.74707031 235.83276367 C308.15372705 237.30945612 305.7167215 238.88220282 303.30957031 240.64526367 C299.08837749 243.72559357 294.7952613 246.48336668 289.80957031 248.14526367 C289.80957031 248.80526367 289.80957031 249.46526367 289.80957031 250.14526367 C287.80957031 251.77026367 287.80957031 251.77026367 285.80957031 253.14526367 C286.40125 254.23323242 286.99292969 255.32120117 287.60253906 256.44213867 C291.73708574 264.11108411 295.66846289 271.65891134 298.73925781 279.82495117 C299.63933459 282.15529704 299.63933459 282.15529704 301.26245117 283.51660156 C303.07824456 285.42809875 303.73975097 287.05174584 304.63378906 289.52416992 C304.93994141 290.36270508 305.24609375 291.20124023 305.56152344 292.06518555 C305.87025391 292.93723633 306.17898438 293.80928711 306.49707031 294.70776367 C306.81740234 295.58368164 307.13773438 296.45959961 307.46777344 297.36206055 C309.80957031 303.84818878 309.80957031 303.84818878 309.80957031 306.14526367 C310.41787689 306.14304306 311.02618347 306.14082245 311.65292358 306.13853455 C363.35220609 305.95891695 363.35220609 305.95891695 387.45977783 306.46365356 C389.27379948 306.50134156 391.08789219 306.53575423 392.90203857 306.56686401 C395.40022183 306.61132463 397.89771418 306.66889533 400.39550781 306.73120117 C401.12616455 306.74275742 401.85682129 306.75431366 402.60961914 306.76622009 C407.5796597 306.91535306 407.5796597 306.91535306 409.80957031 309.14526367 C410.2431301 311.77654254 410.56277242 314.33509747 410.80957031 316.98510742 C410.89078125 317.78066544 410.97199219 318.57622345 411.05566406 319.39588928 C411.31527663 321.95742595 411.56267059 324.51997348 411.80957031 327.08276367 C411.97541632 328.74365311 412.14207486 330.40446163 412.30957031 332.06518555 C412.64498181 335.39969432 412.97603252 338.73459509 413.30419922 342.06982422 C414.20631132 351.19153574 415.17527387 360.30686309 416.1652832 369.41943359 C417.24638794 379.61004645 416.89835477 389.91183045 416.80957031 400.14526367 C413.25600697 401.92204534 409.16587045 401.79712117 405.24707031 402.14526367 C403.80726807 402.27553955 403.80726807 402.27553955 402.33837891 402.40844727 C390.84834557 403.39193655 379.33349011 403.78956928 367.80957031 404.14526367 C367.80957031 404.80526367 367.80957031 405.46526367 367.80957031 406.14526367 C367.16890625 406.26643555 366.52824219 406.38760742 365.86816406 406.51245117 C365.00320313 406.6800293 364.13824219 406.84760742 363.24707031 407.02026367 C362.40015625 407.18268555 361.55324219 407.34510742 360.68066406 407.51245117 C357.72133451 408.12735627 357.72133451 408.12735627 354.52832031 409.12963867 C349.59654788 410.47655131 344.63192225 411.15509242 339.56933594 411.82495117 C333.79583805 412.6927015 327.24243461 414.05980796 323.4543457 418.86401367 C320.56268488 423.73767711 320.09200223 429.10159001 319.37207031 434.62963867 C318.41325319 440.62224571 316.57192575 446.34876649 314.80957031 452.14526367 C313.42325122 456.82783069 312.40376798 461.29264937 311.80957031 466.14526367 C320.02508374 473.1314728 320.02508374 473.1314728 329.59863281 477.52612305 C332.37664596 478.30406489 334.55131985 479.5779509 337.04394531 481.03198242 C338.08156006 481.63397461 339.1191748 482.2359668 340.18823242 482.85620117 C341.30077393 483.5084668 342.41331543 484.16073242 343.55957031 484.83276367 C344.72022203 485.50895182 345.88111407 486.1847276 347.04223633 486.86010742 C349.44099975 488.25640162 351.83804944 489.65557605 354.23388672 491.05688477 C357.6431292 493.04996793 361.05963456 495.03034799 364.47753906 497.00854492 C366.56750856 498.22056769 368.65735752 499.43279836 370.74707031 500.64526367 C371.69743164 501.19529053 372.64779297 501.74531738 373.62695312 502.31201172 C378.4298202 505.1088909 383.20377015 507.95316469 387.93847656 510.86401367 C389.3027478 511.69835937 389.3027478 511.69835937 390.69458008 512.54956055 C392.80957031 514.14526367 392.80957031 514.14526367 393.80957031 517.14526367 C392.97680664 519.56201172 392.97680664 519.56201172 391.64160156 522.40698242 C391.16013672 523.4440332 390.67867187 524.48108398 390.18261719 525.54956055 C389.66763672 526.63301758 389.15265625 527.71647461 388.62207031 528.83276367 C388.12642578 529.89688477 387.63078125 530.96100586 387.12011719 532.05737305 C384.43596989 537.7979734 381.67359612 543.49240128 378.80957031 549.14526367 C378.14957031 549.14526367 377.48957031 549.14526367 376.80957031 549.14526367 C376.54144531 549.69311523 376.27332031 550.2409668 375.99707031 550.80541992 C369.82701186 563.28761054 363.28188943 575.39418921 355.80957031 587.14526367 C355.25011719 588.06049805 354.69066406 588.97573242 354.11425781 589.91870117 C353.60121094 590.7359668 353.08816406 591.55323242 352.55957031 592.39526367 C352.12128906 593.10166992 351.68300781 593.80807617 351.23144531 594.53588867 C349.45835138 596.54279719 348.43551696 596.77583963 345.80957031 597.14526367 C343.10381174 595.93244017 340.62671829 594.66713998 338.05957031 593.20776367 C336.53575822 592.37013667 335.01099426 591.53423929 333.48535156 590.69995117 C332.7101416 590.27294922 331.93493164 589.84594727 331.13623047 589.40600586 C327.5489886 587.46219505 323.90348556 585.64219133 320.24707031 583.83276367 C319.61768555 583.52024658 318.98830078 583.20772949 318.33984375 582.88574219 C317.12551166 582.28323183 315.91084003 581.68140525 314.69580078 581.08032227 C311.39582745 579.44443075 308.10319361 577.793895 304.80957031 576.14526367 C304.80957031 575.48526367 304.80957031 574.82526367 304.80957031 574.14526367 C303.81957031 574.02151367 303.81957031 574.02151367 302.80957031 573.89526367 C299.52569689 573.07429532 296.931198 571.75778936 293.94628906 570.19995117 C290.65782722 568.57676159 287.26129164 567.37802129 283.80957031 566.14526367 C283.80957031 565.48526367 283.80957031 564.82526367 283.80957031 564.14526367 C281.59915622 564.74177268 279.39131628 565.34782457 277.18457031 565.95776367 C275.95480469 566.29420898 274.72503906 566.6306543 273.45800781 566.97729492 C269.82189231 568.0386005 269.82189231 568.0386005 266.66113281 569.71948242 C263.80957031 571.14526367 263.80957031 571.14526367 261.16503906 571.54760742 C257.89709076 572.37678834 257.01977912 573.98273911 255.12207031 576.70776367 C254.05991937 578.21738397 252.96442908 579.70532642 251.80957031 581.14526367 C251.14957031 581.14526367 250.48957031 581.14526367 249.80957031 581.14526367 C249.56207031 581.94963867 249.31457031 582.75401367 249.05957031 583.58276367 C248.44082031 584.85120117 248.44082031 584.85120117 247.80957031 586.14526367 C246.47623698 586.47859701 245.14290365 586.81193034 243.80957031 587.14526367 C243.50019531 587.92901367 243.19082031 588.71276367 242.87207031 589.52026367 C241.51022437 592.88482423 239.8815231 593.34704741 236.80957031 595.14526367 C235.80388789 596.80850768 234.80292232 598.4746262 233.80957031 600.14526367 C232.81957031 600.14526367 231.82957031 600.14526367 230.80957031 600.14526367 C230.47957031 601.13526367 230.14957031 602.12526367 229.80957031 603.14526367 C228.06738281 604.89916992 228.06738281 604.89916992 225.93457031 606.70776367 C225.23589844 607.30717773 224.53722656 607.9065918 223.81738281 608.52416992 C221.80957031 610.14526367 221.80957031 610.14526367 218.80957031 612.14526367 C218.27984835 616.54743582 219.00545683 619.19744187 221.24707031 622.95776367 C224.12725047 627.94824289 226.87574155 632.98495501 229.55957031 638.08276367 C229.94814209 638.81664307 230.33671387 639.55052246 230.73706055 640.30664062 C233.70665317 645.92004504 233.70665317 645.92004504 234.74414062 648.19042969 C235.87057671 650.25719726 237.13716212 651.50678453 238.80957031 653.14526367 C239.66924416 654.43731486 240.48451967 655.75958197 241.26269531 657.10229492 C241.71394775 657.87895508 242.1652002 658.65561523 242.63012695 659.45581055 C243.33770142 660.69427734 243.33770142 660.69427734 244.05957031 661.95776367 C244.54611084 662.80274414 245.03265137 663.64772461 245.53393555 664.51831055 C249.0775157 670.72676153 252.36482106 677.02020899 255.46972656 683.45776367 C256.8000619 686.26662262 256.8000619 686.26662262 258.80957031 689.14526367 C258.82910156 692.59057617 258.82910156 692.59057617 257.80957031 696.14526367 C255.00878906 698.32495117 255.00878906 698.32495117 251.49707031 700.02026367 C249.77037109 700.88264648 249.77037109 700.88264648 248.00878906 701.76245117 C245.52795608 702.83475261 243.40343163 703.52639634 240.80957031 704.14526367 C239.18692788 704.87640406 237.58339941 705.65085927 235.99707031 706.45776367 C235.18625 706.86639648 234.37542969 707.2750293 233.54003906 707.69604492 C231.49563491 708.78112924 229.475817 709.91275681 227.46972656 711.06713867 C223.73503156 713.21563851 219.91795825 715.16720192 216.05957031 717.08276367 C215.3621875 717.42976318 214.66480469 717.7767627 213.94628906 718.13427734 C191.70414788 729.14526367 191.70414788 729.14526367 185.80957031 729.14526367 C185.80957031 729.80526367 185.80957031 730.46526367 185.80957031 731.14526367 C183.49707031 731.39526367 183.49707031 731.39526367 180.80957031 731.14526367 C179.18457031 729.45776367 179.18457031 729.45776367 177.80957031 727.14526367 C177.35453125 726.39116211 176.89949219 725.63706055 176.43066406 724.86010742 C174.75580334 722.05522019 173.12634931 719.2268382 171.49707031 716.39526367 C168.88322965 711.90496056 166.14509553 707.55071621 163.23144531 703.25073242 C161.77026774 701.08706564 160.34060798 698.90765968 158.93457031 696.70776367 C158.3196875 695.75063477 158.3196875 695.75063477 157.69238281 694.77416992 C156.80957031 693.14526367 156.80957031 693.14526367 156.80957031 691.14526367 C156.14957031 691.14526367 155.48957031 691.14526367 154.80957031 691.14526367 C154.09800781 689.78401367 154.09800781 689.78401367 153.37207031 688.39526367 C151.24436083 684.67559889 148.78713902 681.21585071 146.24707031 677.77026367 C145.48265625 676.7312793 144.71824219 675.69229492 143.93066406 674.62182617 C141.29847899 671.54851985 139.77471935 671.22162436 135.79785156 670.90698242 C127.90238053 670.74756271 121.07843584 671.52943694 113.46801758 673.64746094 C108.88929602 674.91935948 104.56584788 675.65634196 99.82519531 675.87182617 C97.76439991 676.03525656 97.76439991 676.03525656 95.95410156 677.11401367 C93.07897221 678.49658953 90.41282801 678.67362205 87.24707031 679.02026367 C80.77834198 679.87283665 74.68500445 681.22465952 68.80957031 684.14526367 C62.32276994 697.11886443 66.47484424 721.83409624 66.33276367 736.00244141 C66.29330883 739.76766185 66.24180493 743.53256159 66.18847656 747.29760742 C66.18006241 748.45888657 66.17164825 749.62016571 66.16297913 750.81663513 C66.14633713 751.88277542 66.12969513 752.94891571 66.11254883 754.04736328 C66.10224136 754.98648056 66.0919339 755.92559784 66.08131409 756.89317322 C65.80957031 759.14526367 65.80957031 759.14526367 63.80957031 761.14526367 C57.86245641 763.01695463 52.47382362 763.42900524 46.27050781 763.37573242 C44.94377548 763.37504509 44.94377548 763.37504509 43.59024048 763.37434387 C41.73299811 763.37134088 39.87575782 763.36351373 38.01855469 763.35107422 C35.18578108 763.33277149 32.35333454 763.33056524 29.52050781 763.33081055 C27.708005 763.32589588 25.89550439 763.32006778 24.08300781 763.31323242 C23.24224701 763.3121196 22.40148621 763.31100677 21.5352478 763.30986023 C17.1652274 763.27477223 13.1231694 762.89805923 8.80957031 762.14526367 C5.68787036 761.88985266 2.56280009 761.73493434 -0.56542969 761.58276367 C-1.396875 761.53958008 -2.22832031 761.49639648 -3.08496094 761.4519043 C-5.11996196 761.34664562 -7.15517672 761.24553295 -9.19042969 761.14526367 C-9.20073715 760.44687378 -9.21104462 759.74848389 -9.22166443 759.02893066 C-9.32117326 752.32579282 -9.42385119 745.62270952 -9.52976894 738.9196701 C-9.58407027 735.47666121 -9.63730084 732.03364392 -9.68774414 728.59057617 C-9.94008337 711.42792128 -10.35625181 694.29022251 -11.19042969 677.14526367 C-12.80437622 677.17015869 -12.80437622 677.17015869 -14.45092773 677.19555664 C-18.52404542 677.14077684 -22.10764681 676.34101835 -26.00292969 675.27026367 C-27.41784058 674.89873986 -28.83320596 674.52894254 -30.24902344 674.16088867 C-30.92690918 673.98364258 -31.60479492 673.80639648 -32.30322266 673.6237793 C-35.48847439 672.81613461 -38.69861552 672.18073175 -41.92871094 671.58276367 C-43.43484033 671.29142258 -44.93342195 670.95788909 -46.42089844 670.58276367 C-57.66412312 667.87083008 -69.80712222 668.69976431 -81.19042969 670.14526367 C-81.19042969 671.13526367 -81.19042969 672.12526367 -81.19042969 673.14526367 C-82.64449219 673.33088867 -82.64449219 673.33088867 -84.12792969 673.52026367 C-85.13855469 673.72651367 -86.14917969 673.93276367 -87.19042969 674.14526367 C-87.52042969 674.80526367 -87.85042969 675.46526367 -88.19042969 676.14526367 C-88.85042969 675.81526367 -89.51042969 675.48526367 -90.19042969 675.14526367 C-94.82340231 680.77633651 -98.88660164 686.67172813 -102.77099609 692.83349609 C-105.81198415 697.63079404 -109.10683997 702.19749292 -112.48730469 706.76245117 C-113.87892993 708.7094498 -115.10397903 710.61433662 -116.25292969 712.70776367 C-118.43193631 716.57374317 -120.92252196 720.11250144 -123.50683594 723.71557617 C-125.2485224 726.15357394 -125.2485224 726.15357394 -126.76855469 728.91088867 C-128.19042969 731.14526367 -128.19042969 731.14526367 -130.37792969 731.77026367 C-133.80137652 731.00949771 -136.0371817 729.51879512 -138.93261719 727.58666992 C-143.69206099 724.54820147 -148.83211565 721.93136835 -154.19042969 720.14526367 C-154.19042969 719.48526367 -154.19042969 718.82526367 -154.19042969 718.14526367 C-154.7228125 718.04858398 -155.25519531 717.9519043 -155.80371094 717.85229492 C-158.93299225 716.92529015 -161.52875433 715.42244694 -164.37792969 713.83276367 C-168.01508007 711.80528323 -171.59671174 709.94243616 -175.42480469 708.30541992 C-180.93060204 705.90148023 -186.06539668 702.91320215 -191.25292969 699.89526367 C-192.21392578 699.3409668 -193.17492187 698.78666992 -194.16503906 698.21557617 C-196.50915732 696.8627517 -198.85085933 695.50593296 -201.19042969 694.14526367 C-200.73359912 688.12770236 -198.84668141 684.06102182 -195.81542969 678.89526367 C-195.37714844 678.13036621 -194.93886719 677.36546875 -194.48730469 676.57739258 C-193.55220312 674.94855923 -192.61228653 673.32248221 -191.66796875 671.69897461 C-190.14103389 669.05989024 -188.64392973 666.40548311 -187.15136719 663.74682617 C-186.16503434 662.00427268 -185.17807188 660.26207539 -184.19042969 658.52026367 C-183.7220166 657.68462891 -183.25360352 656.84899414 -182.77099609 655.98803711 C-182.33190918 655.22265625 -181.89282227 654.45727539 -181.44042969 653.66870117 C-181.05371094 652.98727051 -180.66699219 652.30583984 -180.26855469 651.60375977 C-179.73488281 650.8818042 -179.73488281 650.8818042 -179.19042969 650.14526367 C-178.53042969 650.14526367 -177.87042969 650.14526367 -177.19042969 650.14526367 C-176.94292969 649.46463867 -176.69542969 648.78401367 -176.44042969 648.08276367 C-174.59467809 643.74524741 -172.66910023 639.57623516 -169.25292969 636.27026367 C-166.69825418 633.63817376 -165.20884699 630.81846736 -163.49902344 627.59057617 C-162.61476711 625.93820464 -161.6886678 624.30765583 -160.72558594 622.69995117 C-160.26023437 621.9187793 -159.79488281 621.13760742 -159.31542969 620.33276367 C-158.88488281 619.62506836 -158.45433594 618.91737305 -158.01074219 618.18823242 C-157.0491617 616.19686203 -157.0491617 616.19686203 -157.27246094 614.11010742 C-158.54664151 611.3828188 -160.31438671 610.2528122 -162.75292969 608.52026367 C-164.26499253 607.4398818 -165.75355021 606.32379512 -167.19042969 605.14526367 C-167.19042969 604.48526367 -167.19042969 603.82526367 -167.19042969 603.14526367 C-167.80917969 602.89776367 -168.42792969 602.65026367 -169.06542969 602.39526367 C-171.54111656 600.93897728 -172.14167971 599.76713861 -173.19042969 597.14526367 C-173.85042969 597.14526367 -174.51042969 597.14526367 -175.19042969 597.14526367 C-175.19042969 596.48526367 -175.19042969 595.82526367 -175.19042969 595.14526367 C-176.18042969 594.81526367 -177.17042969 594.48526367 -178.19042969 594.14526367 C-178.19042969 593.48526367 -178.19042969 592.82526367 -178.19042969 592.14526367 C-179.18042969 591.81526367 -180.17042969 591.48526367 -181.19042969 591.14526367 C-181.19042969 590.48526367 -181.19042969 589.82526367 -181.19042969 589.14526367 C-181.85042969 589.14526367 -182.51042969 589.14526367 -183.19042969 589.14526367 C-183.19042969 588.48526367 -183.19042969 587.82526367 -183.19042969 587.14526367 C-183.85042969 587.14526367 -184.51042969 587.14526367 -185.19042969 587.14526367 C-186.52246094 585.53588867 -186.52246094 585.53588867 -188.00292969 583.39526367 C-190.41997129 580.04221087 -192.85493163 577.62306223 -196.19042969 575.14526367 C-196.52042969 574.48526367 -196.85042969 573.82526367 -197.19042969 573.14526367 C-204.37044263 572.90592991 -211.16637847 573.58309644 -218.19042969 575.14526367 C-218.52042969 575.47526367 -218.85042969 575.80526367 -219.19042969 576.14526367 C-220.68337859 576.47110569 -222.18544835 576.75549844 -223.69042969 577.02026367 C-227.88709184 577.82616608 -231.8326612 578.89889658 -235.85546875 580.33154297 C-237.29483764 580.8331549 -238.74110987 581.3159819 -240.19702148 581.76733398 C-246.57492064 583.75247298 -252.45123166 586.52212619 -258.44042969 589.45776367 C-260.47284511 590.43851567 -262.5053964 591.41898616 -264.53808594 592.39916992 C-267.8425532 594.00121953 -271.14174753 595.61325094 -274.43652344 597.23510742 C-275.5721875 597.78295898 -276.70785156 598.33081055 -277.87792969 598.89526367 C-279.30685547 599.5990918 -279.30685547 599.5990918 -280.76464844 600.31713867 C-283.54774981 601.26724735 -284.48943523 601.19902962 -287.19042969 600.14526367 C-288.52734375 598.54150391 -288.52734375 598.54150391 -289.70605469 596.45385742 C-290.36976074 595.29599731 -290.36976074 595.29599731 -291.046875 594.11474609 C-291.50674805 593.27919189 -291.96662109 592.4436377 -292.44042969 591.58276367 C-292.92350586 590.72593994 -293.40658203 589.86911621 -293.90429688 588.98632812 C-298.27015405 581.17103873 -302.29186694 573.20133429 -306.19042969 565.14526367 C-307.45417223 562.53756118 -308.72620958 559.93413189 -310.00292969 557.33276367 C-310.545625 556.21256836 -311.08832031 555.09237305 -311.64746094 553.93823242 C-313.02879042 551.43785121 -314.21038018 550.10984404 -316.19042969 548.14526367 C-317.31315728 546.17844161 -318.37109193 544.1738553 -319.37792969 542.14526367 C-319.90773438 541.09338867 -320.43753906 540.04151367 -320.98339844 538.95776367 C-322.19042969 536.14526367 -322.19042969 536.14526367 -322.19042969 533.14526367 C-322.85042969 533.14526367 -323.51042969 533.14526367 -324.19042969 533.14526367 C-325.20223467 531.08852914 -326.19944445 529.02461019 -327.19042969 526.95776367 C-328.02574219 525.23493164 -328.02574219 525.23493164 -328.87792969 523.47729492 C-330.15570871 520.2334095 -330.62568285 518.55053902 -330.19042969 515.14526367 C-328.65014648 513.60595703 -328.65014648 513.60595703 -326.45214844 512.29760742 C-325.62763184 511.79342285 -324.80311523 511.28923828 -323.95361328 510.76977539 C-323.0417627 510.23368652 -322.12991211 509.69759766 -321.19042969 509.14526367 C-319.23856541 507.9382993 -317.28674435 506.73126506 -315.33496094 505.52416992 C-313.2265361 504.24830513 -311.11578484 502.9762783 -309.00292969 501.70776367 C-307.34245605 500.70990845 -307.34245605 500.70990845 -305.6484375 499.69189453 C-298.96392137 495.70795037 -292.26752045 492.03933342 -285.24902344 488.68041992 C-279.66967791 485.88005876 -274.4473545 482.50201541 -269.19042969 479.14526367 C-268.20816406 478.52264648 -267.22589844 477.9000293 -266.21386719 477.25854492 C-264.37879986 476.09330245 -262.54535382 474.9255011 -260.71386719 473.75463867 C-257.22112018 471.52706628 -253.70707411 469.33487247 -250.19042969 467.14526367 C-251.18261508 462.55640623 -252.20771451 457.99262025 -253.40917969 453.45385742 C-255.88253984 444.08272946 -257.83295597 434.9902565 -258.73339844 425.33276367 C-259.16026304 422.35565673 -259.83029249 420.75000518 -261.19042969 418.14526367 C-261.5733343 416.15415967 -261.91647584 414.15425855 -262.19042969 412.14526367 C-263.05039551 412.07009521 -263.05039551 412.07009521 -263.92773438 411.9934082 C-291.57466257 409.54810228 -291.57466257 409.54810228 -297.0222168 407.43457031 C-304.03717317 404.74198531 -310.79629194 404.59651025 -318.25292969 404.45776367 C-319.50009766 404.42360352 -320.74726563 404.38944336 -322.03222656 404.35424805 C-325.08487096 404.27237636 -328.13725003 404.20302739 -331.19042969 404.14526367 C-331.19042969 403.48526367 -331.19042969 402.82526367 -331.19042969 402.14526367 C-332.20105469 402.33088867 -333.21167969 402.51651367 -334.25292969 402.70776367 C-341.95412934 403.64458223 -350.5237386 403.81495464 -357.64746094 400.57104492 C-360.19042969 398.14526367 -360.19042969 398.14526367 -360.66308594 394.79370117 C-360.55896493 393.36646898 -360.41881624 391.94164137 -360.25292969 390.52026367 C-360.18372314 389.71177979 -360.1145166 388.9032959 -360.04321289 388.0703125 C-359.87855203 386.18703592 -359.69956786 384.30498135 -359.50976562 382.42407227 C-359.15165423 378.74713337 -358.85952962 375.06656874 -358.57324219 371.38354492 C-357.4377553 357.05747306 -356.02640776 342.77406547 -354.19042969 328.52026367 C-353.95972778 326.67307739 -353.95972778 326.67307739 -353.72436523 324.78857422 C-353.49100464 323.05861206 -353.49100464 323.05861206 -353.25292969 321.29370117 C-353.12015625 320.29516113 -352.98738281 319.29662109 -352.85058594 318.26782227 C-352.19042969 315.14526367 -352.19042969 315.14526367 -349.19042969 307.14526367 C-317.84042969 306.81526367 -286.49042969 306.48526367 -254.19042969 306.14526367 C-253.53042969 303.17526367 -252.87042969 300.20526367 -252.19042969 297.14526367 C-251.67351572 295.55281842 -251.11688455 293.97163854 -250.49121094 292.41870117 C-250.17224854 291.62165771 -249.85328613 290.82461426 -249.5246582 290.00341797 C-249.18748779 289.18397705 -248.85031738 288.36453613 -248.50292969 287.52026367 C-248.15351318 286.65506104 -247.80409668 285.7898584 -247.4440918 284.8984375 C-244.73477275 278.26730118 -241.74389861 271.81130524 -238.53808594 265.40698242 C-237.10901801 261.94822382 -236.56203559 258.85661887 -236.19042969 255.14526367 C-236.74730469 254.73276367 -237.30417969 254.32026367 -237.87792969 253.89526367 C-238.64105469 253.31776367 -239.40417969 252.74026367 -240.19042969 252.14526367 C-241.07730469 251.48526367 -241.96417969 250.82526367 -242.87792969 250.14526367 C-245.19042969 248.14526367 -245.19042969 248.14526367 -246.19042969 245.14526367 C-247.51066341 244.45301723 -248.8469219 243.79118088 -250.19042969 243.14526367 C-251.81060221 241.79236451 -253.39104714 240.39118924 -254.94042969 238.95776367 C-256.266875 237.74733398 -256.266875 237.74733398 -257.62011719 236.51245117 C-259.14916001 235.10424456 -260.67603531 233.69366934 -262.19824219 232.27807617 C-267.76582564 227.22298994 -273.89445853 223.23432348 -280.19042969 219.14526367 C-282.02114724 217.92679432 -283.84743382 216.7018642 -285.67358398 215.4765625 C-292.51709719 210.88684277 -299.41890467 206.39468048 -306.36230469 201.95776367 C-308.31681133 200.70515168 -310.25886601 199.43297279 -312.19042969 198.14526367 C-311.88340012 191.29757394 -308.92059476 186.80883529 -305.25292969 181.14526367 C-304.65955811 180.20956543 -304.06618652 179.27386719 -303.45483398 178.30981445 C-301.71522689 175.57812249 -299.95786376 172.85901575 -298.19042969 170.14526367 C-297.76052734 169.48494141 -297.330625 168.82461914 -296.88769531 168.14428711 C-294.99502741 165.25387153 -293.07454464 162.38380718 -291.13574219 159.52416992 C-289.04042157 156.42842895 -286.9824222 153.30959432 -284.9365387 150.18096924 C-283.32749118 147.72184528 -281.71181934 145.26710386 -280.09579468 142.81256104 C-279.29043563 141.58600649 -278.48783402 140.3576365 -277.68814087 139.12738037 C-276.5545769 137.38472707 -275.41072702 135.64923512 -274.26464844 133.91479492 C-273.60037842 132.90006104 -272.9361084 131.88532715 -272.25170898 130.83984375 C-270.09882398 128.02551332 -268.19023636 126.03638899 -265.19042969 124.14526367 C-263.08056641 124.23510742 -263.08056641 124.23510742 -260.99511719 125.08276367 C-260.21491211 125.3947168 -259.43470703 125.70666992 -258.63085938 126.02807617 C-254.45171815 127.94121645 -250.36648685 129.97370105 -246.31542969 132.14526367 C-245.40414307 132.62874268 -244.49285645 133.11222168 -243.55395508 133.61035156 C-230.6922802 140.48482939 -218.17954449 147.93420054 -205.69042969 155.45776367 C-198.94039497 159.52330772 -192.180057 163.50162535 -185.19042969 167.14526367 C-183.98068382 167.8052175 -182.7710568 168.4653892 -181.56152344 169.12573242 C-180.29259413 169.80004347 -179.0230677 170.47323211 -177.75292969 171.14526367 C-176.02236328 172.07338867 -176.02236328 172.07338867 -174.25683594 173.02026367 C-171.36705334 174.41151473 -171.36705334 174.41151473 -169.02636719 173.57885742 C-166.16219577 171.34236613 -163.77219109 168.7600596 -161.28808594 166.11791992 C-159.19042969 164.14526367 -159.19042969 164.14526367 -156.85449219 162.77807617 C-152.63521649 160.19206849 -149.29626212 156.68342318 -145.74316406 153.2644043 C-141.39266755 149.14526367 -141.39266755 149.14526367 -139.19042969 149.14526367 C-141.60720332 143.99648507 -144.36092207 139.12714557 -147.31542969 134.27026367 C-150.73057929 128.64773528 -154.00952264 122.96607818 -157.19042969 117.20776367 C-157.81050903 116.08640015 -157.81050903 116.08640015 -158.44311523 114.94238281 C-160.11826506 111.90880905 -161.79014279 108.87345008 -163.45947266 105.83666992 C-164.67762907 103.62441846 -165.90221026 101.41583138 -167.12792969 99.20776367 C-167.49337891 98.53946533 -167.85882813 97.87116699 -168.23535156 97.18261719 C-170.10280269 93.74633471 -170.10280269 93.74633471 -172.6159668 90.78540039 C-174.66772015 88.64806452 -175.8809175 86.34685963 -177.29199219 83.74291992 C-177.86433594 82.68782227 -178.43667969 81.63272461 -179.02636719 80.5456543 C-179.91195312 78.89339844 -179.91195312 78.89339844 -180.81542969 77.20776367 C-181.41355469 76.11012695 -182.01167969 75.01249023 -182.62792969 73.8815918 C-187.84531879 64.20817467 -187.84531879 64.20817467 -188.19042969 61.14526367 C-184.54568898 56.53902695 -179.74654484 53.75449794 -174.75292969 50.77026367 C-173.95886719 50.28984619 -173.16480469 49.80942871 -172.34667969 49.31445312 C-166.45446672 45.79319383 -160.45815103 42.66912341 -154.27636719 39.68432617 C-151.51998027 38.30962181 -148.92968678 36.83190346 -146.31542969 35.20776367 C-140.11329772 31.37521701 -133.55793862 28.21977878 -127.00097656 25.04614258 C-125.33480881 24.2171028 -123.7054728 23.31510562 -122.08105469 22.40698242 C-118.72331887 20.94137611 -116.80413121 20.46251305 -113.19042969 21.14526367 C-111.36101961 23.0764901 -110.21518361 24.64533767 -108.87792969 26.89526367 C-108.46824951 27.54575684 -108.05856934 28.19625 -107.63647461 28.86645508 C-106.12982942 31.27827733 -104.66079616 33.7111573 -103.19042969 36.14526367 C-101.8916907 38.2629053 -100.59215716 40.38005976 -99.29199219 42.49682617 C-94.88613248 49.68971936 -90.53513882 56.91532648 -86.19042969 64.14526367 C-85.46210534 65.35638108 -84.73375269 66.56748147 -84.00537109 67.77856445 C-80.20985142 74.0908605 -76.42069901 80.40695197 -72.63818359 86.72705078 C-71.15720738 89.20075557 -69.67415862 91.67320917 -68.19042969 94.14526367 C-67.53413574 93.96423096 -66.8778418 93.78319824 -66.20166016 93.59667969 C-27.91067983 83.0870851 -27.91067983 83.0870851 -12.19042969 83.14526367 C-12.1926503 82.31778122 -12.19487091 81.49029877 -12.19715881 80.63774109 C-12.2172875 72.7974646 -12.23246753 64.95719694 -12.24224186 57.11690044 C-12.24743603 53.08719966 -12.25446988 49.05752042 -12.26586914 45.02783203 C-12.27682225 41.1309825 -12.28273256 37.23415356 -12.28530693 33.33728981 C-12.28713898 31.85872893 -12.29071593 30.38016904 -12.29615974 28.90161705 C-12.37847018 5.59568767 -12.37847018 5.59568767 -9.77284241 2.41459656 C-6.5305855 -0.18618089 -4.09231194 0.01356506 0 0 Z M-139.71386719 202.85620117 C-141.80725151 204.79109583 -143.94125176 206.63103273 -146.12792969 208.45776367 C-192.09419548 248.72495992 -215.58842962 311.11496029 -219.59277344 370.72338867 C-219.89273308 375.86207232 -220.0603832 380.99985844 -220.19042969 386.14526367 C-220.21766113 386.9728418 -220.24489258 387.80041992 -220.27294922 388.65307617 C-220.61335661 399.58036767 -219.89191066 409.47981679 -217.19042969 420.14526367 C-217.01350586 420.86117676 -216.83658203 421.57708984 -216.65429688 422.31469727 C-215.46104273 427.12584029 -214.19162607 431.91217058 -212.86865234 436.68920898 C-212.42419666 438.29872092 -211.98612989 439.91001387 -211.55517578 441.52319336 C-201.7517448 478.06531253 -183.26452828 511.96774909 -157.47949219 539.66870117 C-155.54459753 541.7620855 -153.70466063 543.89608575 -151.87792969 546.08276367 C-111.79764771 591.83566096 -47.73424222 617.22533825 11.60009766 621.94458008 C76.98874588 626.03323585 144.12783287 606.09955839 193.77050781 562.54760742 C195.63487963 560.85434919 197.48952637 559.15030458 199.33300781 557.43432617 C201.42639214 555.49943151 203.56039239 553.65949461 205.74707031 551.83276367 C249.61043564 513.40774242 274.97760124 452.42702065 278.80957031 395.14526367 C281.66230082 333.76607954 262.95936032 271.09900663 221.27539062 224.97192383 C219.92368187 223.51345172 218.55251248 222.07308978 217.18066406 220.63354492 C215.17349072 218.52717026 213.2953816 216.37914714 211.43457031 214.14526367 C171.44419336 168.40155418 107.25732127 143.0575487 48.01904297 138.34594727 C-20.15491342 134.08313028 -89.37127903 155.99552113 -139.71386719 202.85620117 Z " fill="#010101" transform="translate(484.1904296875,125.854736328125)"/>
<path d="M0 0 C1.50046875 1.19302734 1.50046875 1.19302734 3.03125 2.41015625 C45.74464719 37.1168748 73.72028863 86.93812268 80.6640625 141.63671875 C83.16738861 166.69908831 81.84108706 191.47052761 76 216 C75.83161621 216.7331543 75.66323242 217.46630859 75.48974609 218.22167969 C68.31458424 248.88982117 52.72526517 278.34119545 32 302 C31.319375 302.79019531 30.63875 303.58039063 29.9375 304.39453125 C19.3269653 316.4679154 8.05039071 327.59204679 -5 337 C-5.65919434 337.47646973 -6.31838867 337.95293945 -6.99755859 338.44384766 C-25.47382246 351.62876674 -45.51180796 361.73521535 -67 369 C-68.09272217 369.3724585 -68.09272217 369.3724585 -69.20751953 369.75244141 C-123.53069513 387.90209234 -184.36720719 381.52697732 -235.33105469 356.52001953 C-248.43405883 349.89265575 -260.51157558 342.15676839 -272 333 C-273.0003125 332.20464844 -274.000625 331.40929687 -275.03125 330.58984375 C-317.74464719 295.8831252 -345.72028863 246.06187732 -352.6640625 191.36328125 C-355.16738861 166.30091169 -353.84108706 141.52947239 -348 117 C-347.83161621 116.2668457 -347.66323242 115.53369141 -347.48974609 114.77832031 C-340.31458424 84.11017883 -324.72526517 54.65880455 -304 31 C-303.319375 30.20980469 -302.63875 29.41960937 -301.9375 28.60546875 C-291.3269653 16.5320846 -280.05039071 5.40795321 -267 -4 C-266.0112085 -4.71470459 -266.0112085 -4.71470459 -265.00244141 -5.44384766 C-246.52617754 -18.62876674 -226.48819204 -28.73521535 -205 -36 C-203.90727783 -36.3724585 -203.90727783 -36.3724585 -202.79248047 -36.75244141 C-134.77607691 -59.47706987 -55.80332746 -44.47765213 0 0 Z M-181 -4 C-186.9666244 1.9666244 -184.84682164 18.32410665 -185.20458984 26.33984375 C-185.31822095 28.78047051 -185.4425771 31.22062148 -185.57763672 33.66015625 C-185.77227774 37.18939304 -185.93271517 40.71875169 -186.0859375 44.25 C-186.15235443 45.33764648 -186.21877136 46.42529297 -186.28720093 47.54589844 C-186.58686796 54.06951821 -186.58686796 54.06951821 -183.61914062 59.65673828 C-179.14586657 63.65883414 -175.12086911 64.82615827 -169.1875 65.3125 C-165.84608804 65.23746417 -165.84608804 65.23746417 -163 63 C-162.37027368 60.67311283 -162.37027368 60.67311283 -162.20043945 57.91113281 C-162.0506237 56.31872772 -162.0506237 56.31872772 -161.89778137 54.69415283 C-161.80389633 53.54211365 -161.71001129 52.39007446 -161.61328125 51.203125 C-161.50654587 50.02159851 -161.39981049 48.84007202 -161.2898407 47.6227417 C-160.95102565 43.83285093 -160.63190385 40.04157087 -160.3125 36.25 C-160.08650332 33.70822485 -159.85930467 31.16655625 -159.63085938 28.625 C-159.21742441 23.95273269 -158.80480588 19.28044318 -158.41137695 14.60644531 C-158.3316011 13.66649719 -158.25182526 12.72654907 -158.16963196 11.75811768 C-157.60783092 5.76472161 -157.60783092 5.76472161 -159.625 0.3125 C-165.30114193 -5.21426978 -173.6771911 -8.09215791 -181 -4 Z M-214.25 4.6875 C-215.85388786 5.88578993 -217.45806277 7.08369574 -219.0625 8.28125 C-219.87976563 8.89871094 -220.69703125 9.51617187 -221.5390625 10.15234375 C-225.40266534 13.05311223 -229.32702148 15.86787239 -233.25 18.6875 C-234.7383097 19.76428359 -236.2265914 20.84110589 -237.71484375 21.91796875 C-240.48635598 23.91777809 -243.26927125 25.89948073 -246.06640625 27.86328125 C-247.01821777 28.53387573 -247.01821777 28.53387573 -247.98925781 29.21801758 C-249.68408276 30.40970555 -251.38289762 31.59571351 -253.08203125 32.78125 C-258.99374146 37.18687016 -258.99374146 37.18687016 -261.875 43.6875 C-261.43006138 49.95176747 -256.23287277 53.86251591 -252 58 C-250.99086665 59.00648991 -249.98309116 60.0143428 -248.9765625 61.0234375 C-247.46742227 62.53635767 -245.95624646 64.04572581 -244.42675781 65.53808594 C-241.70795194 68.20506978 -239.14862322 70.94839834 -236.6640625 73.8359375 C-232.82064475 78.27794622 -228.6889099 82.38602587 -224.5 86.5 C-219.64954555 91.26368424 -214.97588344 96.08174462 -210.54101562 101.23632812 C-208.62453802 103.42971124 -206.59005573 105.47233399 -204.5 107.5 C-201.03490846 110.91802748 -197.79761063 114.44967824 -194.63671875 118.1484375 C-193.03670675 119.95847494 -191.36336236 121.63607454 -189.625 123.3125 C-185.47758756 127.55866035 -185.8646067 131.36103709 -185.90234375 136.97094727 C-185.90453415 138.19178513 -185.90453415 138.19178513 -185.9067688 139.43728638 C-185.91058017 141.21166651 -185.91670235 142.98604281 -185.92483521 144.7604084 C-185.93767605 147.60541158 -185.94413853 150.45036753 -185.94897461 153.2953949 C-185.96231378 160.39137154 -185.98600212 167.48730585 -186.01037598 174.58325195 C-186.03378126 181.49429722 -186.05221198 188.40532831 -186.0625 195.31640625 C-186.06478104 196.76437529 -186.06478104 196.76437529 -186.06710815 198.24159622 C-186.08536252 216.1828887 -185.63597086 234.06860291 -185 252 C-173.45 252 -161.9 252 -150 252 C-149.6374253 235.21313984 -149.34330998 218.42967075 -149.17100525 201.63996983 C-149.08883897 193.84244722 -148.97704491 186.04754682 -148.79296875 178.25170898 C-148.63241396 171.4487273 -148.53002396 164.64764532 -148.49458408 157.84282154 C-148.47389283 154.24551038 -148.42607773 150.65362813 -148.30831909 147.05807686 C-147.46405211 128.81013928 -147.46405211 128.81013928 -155.60544586 113.11145687 C-158.32466851 110.39934571 -161.14287946 107.90125105 -164.14660549 105.50943851 C-166.55868155 103.54499949 -168.61358014 101.33119939 -170.67578125 99.0078125 C-176.39184911 92.90192756 -182.11077772 86.81517772 -188.0625 80.9375 C-191.63799021 77.40463858 -194.99719596 73.78319134 -198.2578125 69.9609375 C-200.95947287 66.9200552 -203.88230424 64.10921966 -206.77734375 61.25390625 C-210.01250554 57.97325888 -213.02227018 54.51391268 -216 51 C-214.45571519 46.81517881 -211.67065751 44.99921588 -208.125 42.4375 C-207.07570313 41.67308594 -206.02640625 40.90867187 -204.9453125 40.12109375 C-202 38 -202 38 -199.6796875 36.66015625 C-197.12011132 34.13034258 -197.20604467 31.42391205 -197 28 C-196.88857666 26.59161865 -196.88857666 26.59161865 -196.77490234 25.15478516 C-196.53469113 21.87526992 -196.35634387 18.59641839 -196.1875 15.3125 C-196.11080078 14.18521484 -196.03410156 13.05792969 -195.95507812 11.89648438 C-195.90158203 10.81302734 -195.84808594 9.72957031 -195.79296875 8.61328125 C-195.7364917 7.63141846 -195.68001465 6.64955566 -195.62182617 5.63793945 C-196.11337855 2.20913158 -197.31003432 1.10291468 -200 -1 C-206.06879257 -2.34380407 -209.69852103 1.17654356 -214.25 4.6875 Z M-145 11 C-145.60043085 13.67483219 -145.96844556 16.04005028 -146.1953125 18.74609375 C-146.27337631 19.50571915 -146.35144012 20.26534454 -146.43186951 21.04798889 C-146.6805866 23.50979136 -146.90381528 25.97308353 -147.125 28.4375 C-147.28644243 30.12381676 -147.44912411 31.81001534 -147.61303711 33.49609375 C-147.85586885 36.00524882 -148.09646572 38.51448693 -148.3289032 41.02462769 C-148.76104929 45.67667492 -149.26448748 50.30805636 -149.87109375 54.94140625 C-150.04970947 56.38592163 -150.04970947 56.38592163 -150.23193359 57.85961914 C-150.44554475 59.56582643 -150.67768631 61.26986144 -150.93212891 62.97045898 C-151.39463478 66.98102075 -151.28926294 68.61963468 -148.8046875 71.88671875 C-144.11011564 75.42399365 -139.50457391 77.72171401 -133.625 78.375 C-130.77283214 78.16016151 -130.77283214 78.16016151 -128 76 C-127.30508765 73.97255719 -127.30508765 73.97255719 -127.03271484 71.57299805 C-126.89602386 70.65411301 -126.75933289 69.73522797 -126.61849976 68.78849792 C-126.41675644 67.29024223 -126.41675644 67.29024223 -126.2109375 65.76171875 C-126.0621817 64.72997025 -125.9134259 63.69822174 -125.76016235 62.63520813 C-125.44654966 60.44282177 -125.1393083 58.24951615 -124.83789062 56.05541992 C-124.38185539 52.73737878 -123.90766871 49.42236503 -123.4296875 46.10742188 C-122.69417081 40.95661452 -121.99775815 35.80207461 -121.33776855 30.64105225 C-121.12864894 29.00592127 -120.91482201 27.37137556 -120.69348145 25.737854 C-120.45139489 23.9181054 -120.2432867 22.093917 -120.0390625 20.26953125 C-119.93029785 19.34374268 -119.8215332 18.4179541 -119.70947266 17.46411133 C-120.11598336 14.01628566 -121.62725304 12.46579069 -124 10 C-130.85218655 6.0257318 -139.59943225 4.13189409 -145 11 Z M-105.66015625 19.00390625 C-107.76437672 22.13876531 -108.1839139 25.59355145 -108.8125 29.25 C-108.96775146 30.12591797 -109.12300293 31.00183594 -109.28295898 31.90429688 C-109.64551349 33.98902836 -110.00033654 36.07511162 -110.34960938 38.16210938 C-110.83405766 41.02079071 -111.33294881 43.87491404 -111.84570312 46.72851562 C-112.62858619 51.09424307 -113.37861082 55.46471218 -114.11068726 59.8392334 C-114.41156214 61.6111131 -114.72179201 63.38143 -115.04141235 65.15002441 C-115.49365045 67.66919395 -115.90896423 70.19200088 -116.31640625 72.71875 C-116.46076111 73.47947815 -116.60511597 74.2402063 -116.75384521 75.02398682 C-117.18295796 77.45003349 -117.18295796 77.45003349 -117 81 C-113.63935967 85.32992282 -110.20859549 87.35061143 -105 89 C-101.96673787 89.31876646 -99.0200744 89.47361656 -96 89 C-93.55834748 86.55834748 -93.43505408 85.17751917 -92.76318359 81.81933594 C-92.54310638 80.73771179 -92.32302917 79.65608765 -92.09628296 78.54168701 C-91.86599396 77.36777405 -91.63570496 76.19386108 -91.3984375 74.984375 C-91.0364476 73.1787912 -91.0364476 73.1787912 -90.66714478 71.33673096 C-90.02685116 68.13108542 -89.39388304 64.92409486 -88.76348877 61.7164917 C-88.12200752 58.46937711 -87.46580063 55.22522256 -86.8125 51.98046875 C-86.31945726 49.5027742 -85.82724267 47.02491468 -85.3359375 44.546875 C-85.10160004 43.38105896 -84.86726257 42.21524292 -84.62582397 41.01409912 C-84.41205109 39.91986633 -84.1982782 38.82563354 -83.97802734 37.69824219 C-83.78864594 36.74052917 -83.59926453 35.78281616 -83.40414429 34.79608154 C-82.43310501 29.18964444 -82.43310501 29.18964444 -84.35546875 24.171875 C-90.26035424 19.5889788 -94.4037729 17.80332927 -101.9140625 17.63671875 C-104.01658206 17.87287459 -104.01658206 17.87287459 -105.66015625 19.00390625 Z M-70 36 C-70.79460127 38.68409906 -70.79460127 38.68409906 -70.9765625 41.79296875 C-71.08895264 42.96931885 -71.20134277 44.14566895 -71.31713867 45.35766602 C-71.41873291 46.62151123 -71.52032715 47.88535645 -71.625 49.1875 C-71.74270752 50.48292725 -71.86041504 51.77835449 -71.98168945 53.11303711 C-72.22369268 55.7805992 -72.45440204 58.44877192 -72.67529297 61.11816406 C-72.97430224 64.69278622 -73.29679223 68.26426436 -73.62890625 71.8359375 C-73.81638272 73.91134324 -74.00264943 75.98685874 -74.1875 78.0625 C-74.2714502 78.99280029 -74.35540039 79.92310059 -74.44189453 80.8815918 C-74.66704014 83.58649987 -74.83602317 86.2907651 -75 89 C-75.09603516 90.01537842 -75.19207031 91.03075684 -75.29101562 92.0769043 C-75.61747263 97.46386564 -75.6602366 101.01972673 -72.0078125 105.19921875 C-70.74333958 106.39431582 -69.44792497 107.55744765 -68.125 108.6875 C-67.47402344 109.29271484 -66.82304688 109.89792969 -66.15234375 110.52148438 C-61.76309482 114.70878432 -61.76309482 114.70878432 -56.0625 116.25 C-53.04305062 116.27001468 -53.04305062 116.27001468 -51.1875 114.6875 C-48.90174067 111.43931568 -48.77976206 108.21979276 -48.51928711 104.37036133 C-48.43927963 103.21518509 -48.35927216 102.06000885 -48.27684021 100.86982727 C-48.19450638 99.61985458 -48.11217255 98.3698819 -48.02734375 97.08203125 C-47.8962899 95.15250862 -47.8962899 95.15250862 -47.7625885 93.18400574 C-47.57774987 90.45803681 -47.39565003 87.73190296 -47.21557617 85.00561523 C-46.9858691 81.52994177 -46.75032123 78.05469561 -46.51279354 74.57954884 C-46.2856603 71.2472305 -46.06288667 67.91462592 -45.83984375 64.58203125 C-45.75548569 63.34217972 -45.67112762 62.10232819 -45.58421326 60.8249054 C-44.27049568 50.2949339 -44.27049568 50.2949339 -46.375 40.3125 C-51.21327659 36.05020872 -56.46110449 33.32759942 -62.875 32.5 C-66.31464208 33.05034273 -67.54141485 33.58742083 -70 36 Z M-95.84765625 107.63647461 C-96.57855469 108.38421143 -97.30945313 109.13194824 -98.0625 109.90234375 C-98.85914063 110.70994141 -99.65578125 111.51753906 -100.4765625 112.34960938 C-101.72566406 113.63061523 -101.72566406 113.63061523 -103 114.9375 C-104.64361203 116.61545996 -106.2893414 118.29134938 -107.9375 119.96484375 C-108.66839844 120.7137085 -109.39929688 121.46257324 -110.15234375 122.23413086 C-112 124 -112 124 -114 125 C-114 125.66 -114 126.32 -114 127 C-114.86467187 127.40093416 -114.86467187 127.40093416 -115.74681187 127.80996799 C-123.80126873 132.06396761 -132.93109022 140.04362666 -135.96016312 148.7643013 C-137.35030548 156.08142157 -136.95734649 163.44364587 -136.66015625 170.84765625 C-136.62837539 173.19981619 -136.60421138 175.5520901 -136.58726501 177.90440369 C-136.52291884 184.04115712 -136.35648171 190.17086643 -136.16729736 196.30487061 C-135.99212876 202.5857413 -135.91548565 208.8677718 -135.83007812 215.15039062 C-135.64875688 227.4371582 -135.35025781 239.71688652 -135 252 C-127.08 252 -119.16 252 -111 252 C-111.08491699 249.63118652 -111.16983398 247.26237305 -111.25732422 244.82177734 C-111.52446419 236.90394894 -111.6657235 228.98723535 -111.74871635 221.06545067 C-111.80266715 216.27106062 -111.89598755 211.48489362 -112.08691406 206.69384766 C-113.4251749 171.92851397 -113.4251749 171.92851397 -103.84549904 161.09456062 C-99.83104076 156.92430267 -95.36715354 153.33695737 -90.68070984 149.94667053 C-86.90302397 147.20340095 -83.45639429 144.13189693 -80 141 C-79.4854274 140.53577133 -78.9708548 140.07154266 -78.44068909 139.59324646 C-77.08745477 138.35324741 -75.76136133 137.08381111 -74.4375 135.8125 C-73.56996094 134.99394531 -72.70242188 134.17539062 -71.80859375 133.33203125 C-69.78610324 131.2492429 -69.78610324 131.2492429 -70.09814453 129.16577148 C-71.36506867 126.12330153 -73.29024614 124.33841041 -75.62109375 122.015625 C-76.0810524 121.55516785 -76.54101105 121.09471069 -77.01490784 120.62030029 C-77.98559656 119.65194617 -78.95996576 118.68726917 -79.93774414 117.72607422 C-81.43755575 116.24994513 -82.92351194 114.76085162 -84.40820312 113.26953125 C-89.49439017 106.76215524 -89.49439017 106.76215524 -95.84765625 107.63647461 Z M-228 268 C-229.29633621 269.06645115 -229.29633621 269.06645115 -229.0625 271.5625 C-229.041875 272.366875 -229.02125 273.17125 -229 274 C-226.525 274.495 -226.525 274.495 -224 275 C-223.34 273.68 -222.68 272.36 -222 271 C-222.66 270.01 -223.32 269.02 -224 268 C-225.32 268 -226.64 268 -228 268 Z M-133 268 C-133.66 268.66 -134.32 269.32 -135 270 C-134.6814823 272.10820797 -134.6814823 272.10820797 -134 274 C-132.10820797 274.6814823 -132.10820797 274.6814823 -130 275 C-129.34 274.34 -128.68 273.68 -128 273 C-128 271.68 -128 270.36 -128 269 C-130.39719432 268.32041397 -130.39719432 268.32041397 -133 268 Z M-114 269 C-114.99 269.495 -114.99 269.495 -116 270 C-116 272.97 -116 275.94 -116 279 C-117.32 279 -118.64 279 -120 279 C-119.67 280.65 -119.34 282.3 -119 284 C-118.01 283.67 -117.02 283.34 -116 283 C-116.02320313 284.31355469 -116.04640625 285.62710937 -116.0703125 286.98046875 C-116.08907651 288.71614013 -116.10727604 290.45181768 -116.125 292.1875 C-116.14175781 293.05181641 -116.15851563 293.91613281 -116.17578125 294.80664062 C-116.23026637 301.13478629 -116.23026637 301.13478629 -114 307 C-111.04977304 309.13637125 -108.57467872 309.19859326 -105 309 C-105 307.68 -105 306.36 -105 305 C-106.65 304.34 -108.3 303.68 -110 303 C-110.33 296.4 -110.66 289.8 -111 283 C-109.02 283 -107.04 283 -105 283 C-105 281.68 -105 280.36 -105 279 C-106.98 279 -108.96 279 -111 279 C-111 276.03 -111 273.06 -111 270 C-111.99 269.67 -112.98 269.34 -114 269 Z M-168.44921875 282.4296875 C-172.26972472 286.83038492 -173.30408951 290.12765236 -173.21875 295.94140625 C-172.67518351 301.05675515 -169.82914659 304.76915757 -166 308 C-161.0279571 309.65734763 -154.85032687 310.24092177 -149.9453125 308.10546875 C-148.13911622 306.92930275 -148.13911622 306.92930275 -146 305 C-146.33 304.01 -146.66 303.02 -147 302 C-147.639375 302.144375 -148.27875 302.28875 -148.9375 302.4375 C-151.48105256 302.90468312 -153.99829038 303.29918459 -156.5625 303.625 C-157.30628906 303.72039062 -158.05007813 303.81578125 -158.81640625 303.9140625 C-161.19102603 304.00751802 -162.80280315 303.92366237 -165 303 C-167.25195248 299.47246604 -168.15606879 295.54904095 -167.73828125 291.40234375 C-167.25183977 289.22543187 -166.69612597 287.11842651 -166 285 C-159.10952386 282.7357537 -154.62578284 283.0865352 -148 286 C-147.34 285.01 -146.68 284.02 -146 283 C-153.00749853 277.12885258 -161.29380435 275.37070725 -168.44921875 282.4296875 Z M-208 279 C-209.31775285 280.09187983 -209.31775285 280.09187983 -209.11352539 282.77563477 C-209.10828857 283.98533936 -209.10305176 285.19504395 -209.09765625 286.44140625 C-209.09443359 287.74658203 -209.09121094 289.05175781 -209.08789062 290.39648438 C-209.07953401 291.7851569 -209.07106905 293.17382877 -209.0625 294.5625 C-209.05748666 295.95507656 -209.05292347 297.34765481 -209.04882812 298.74023438 C-209.03699434 302.1601987 -209.0205088 305.58007844 -209 309 C-207.68 309 -206.36 309 -205 309 C-204.96261719 307.77023437 -204.92523438 306.54046875 -204.88671875 305.2734375 C-204.82102972 303.64059599 -204.75458341 302.00778482 -204.6875 300.375 C-204.66494141 299.56675781 -204.64238281 298.75851562 -204.61914062 297.92578125 C-204.39758961 292.97109488 -203.84858037 289.23293718 -201 285 C-197.5625 283.875 -197.5625 283.875 -194 284 C-191.82421875 285.3359375 -191.82421875 285.3359375 -190 288 C-189.36221557 291.57599916 -189.30311199 295.1238997 -189.25 298.75 C-189.22035156 299.73355469 -189.19070313 300.71710938 -189.16015625 301.73046875 C-189.08957589 304.15372776 -189.03682299 306.57603154 -189 309 C-187.68 309 -186.36 309 -185 309 C-184.91258876 305.43765572 -184.85947104 301.87558892 -184.8125 298.3125 C-184.78736328 297.30509766 -184.76222656 296.29769531 -184.73632812 295.25976562 C-184.67208047 288.77075293 -185.1122862 284.99084644 -189.75 280.1875 C-193.01330469 278.4652003 -195.35580471 278.62301428 -199 279 C-202.35161246 280.38214122 -202.35161246 280.38214122 -205 282 C-205.33 281.01 -205.66 280.02 -206 279 C-206.66 279 -207.32 279 -208 279 Z M-133 279 C-134.31775285 280.09187983 -134.31775285 280.09187983 -134.11352539 282.77563477 C-134.10828857 283.98533936 -134.10305176 285.19504395 -134.09765625 286.44140625 C-134.09443359 287.74658203 -134.09121094 289.05175781 -134.08789062 290.39648438 C-134.07953401 291.7851569 -134.07106905 293.17382877 -134.0625 294.5625 C-134.05748666 295.95507656 -134.05292347 297.34765481 -134.04882812 298.74023438 C-134.03699434 302.1601987 -134.0205088 305.58007844 -134 309 C-132.35 309 -130.7 309 -129 309 C-129 299.43 -129 289.86 -129 280 C-130.32 279.67 -131.64 279.34 -133 279 Z M-93.359375 284.6953125 C-96.09940034 289.33083482 -96.47617492 293.38123777 -95.6796875 298.6640625 C-94.42212096 302.98604407 -92.01963579 305.77212918 -88.13671875 308.1328125 C-84.2003863 309.73037338 -80.16429725 309.5630968 -76 309 C-73.59176212 307.90965608 -72.04495034 306.72206345 -70 305 C-70.33 304.01 -70.66 303.02 -71 302 C-74.60992379 302.65585189 -74.60992379 302.65585189 -78 304 C-82.62005487 304.41067154 -85.3545071 303.93664706 -89 301 C-89.71807251 299.35482703 -90.39188207 297.68890935 -91 296 C-89.9627478 296.00785522 -89.9627478 296.00785522 -88.90454102 296.01586914 C-85.79053648 296.036575 -82.67654639 296.04963963 -79.5625 296.0625 C-78.47388672 296.07087891 -77.38527344 296.07925781 -76.26367188 296.08789062 C-74.71196289 296.09272461 -74.71196289 296.09272461 -73.12890625 296.09765625 C-72.17056885 296.10289307 -71.21223145 296.10812988 -70.22485352 296.11352539 C-68.02714661 296.2505313 -68.02714661 296.2505313 -67 295 C-67.22021021 288.50379893 -68.34463216 285.54710347 -73 281 C-76.02163155 278.70772779 -79.1519744 278.56933992 -82.91015625 278.6953125 C-87.36549708 279.34487621 -90.54399971 281.18418355 -93.359375 284.6953125 Z M-228 280 C-228 289.57 -228 299.14 -228 309 C-226.68 309 -225.36 309 -224 309 C-224 299.43 -224 289.86 -224 280 C-225.32 280 -226.64 280 -228 280 Z " fill="#000000" transform="translate(651,337)"/>
<path d="M0 0 C-2.475 1.485 -2.475 1.485 -5 3 C-4.11477661 2.90126587 -4.11477661 2.90126587 -3.21166992 2.80053711 C-0.5376393 2.50611221 2.13736405 2.22169882 4.8125 1.9375 C5.74126953 1.83373047 6.67003906 1.72996094 7.62695312 1.62304688 C8.9659668 1.48286133 8.9659668 1.48286133 10.33203125 1.33984375 C11.15421143 1.25081787 11.9763916 1.16179199 12.82348633 1.07006836 C15 1 15 1 18 2 C19.41546255 2.27705759 20.8322689 2.54729506 22.25 2.8125 C26.82383773 3.8139612 30.13888636 5.34548437 34 8 C34.495 9.485 34.495 9.485 35 11 C35.99 11.99 35.99 11.99 37 13 C8.62 13 -19.76 13 -49 13 C-37.8983927 4.67379452 -22.32699103 2.77903602 -9 0 C-7.6852771 -0.29245605 -7.6852771 -0.29245605 -6.34399414 -0.59082031 C-3.86275665 -1.02395791 -2.36646175 -0.78882058 0 0 Z " fill="#FFFFFF" transform="translate(502,1011)"/>
<path d="M0 0 C-0.33 4.29 -0.66 8.58 -1 13 C2.465 12.505 2.465 12.505 6 12 C5.67 13.32 5.34 14.64 5 16 C3.35 16 1.7 16 0 16 C0.33 18.31 0.66 20.62 1 23 C-1.8759151 22.37899527 -4.75068627 21.75333835 -7.625 21.125 C-8.43324219 20.95097656 -9.24148437 20.77695312 -10.07421875 20.59765625 C-23.30712891 17.69287109 -23.30712891 17.69287109 -28 13 C-29 10.4375 -29 10.4375 -29 8 C-27.6875 6.1875 -27.6875 6.1875 -26 5 C-25.34 5 -24.68 5 -24 5 C-24 4.34 -24 3.68 -24 3 C-15.86925226 -0.14738622 -8.68436376 -0.25542246 0 0 Z " fill="#FFFFFF" transform="translate(115,958)"/>
<path d="M0 0 C5.91285975 2.1321116 11.42321137 4.74661637 16.96044922 7.71484375 C17.87173584 8.19832275 18.78302246 8.68180176 19.72192383 9.17993164 C32.58359871 16.05440947 45.09633442 23.50378062 57.58544922 31.02734375 C64.33548394 35.0928878 71.0958219 39.07120543 78.08544922 42.71484375 C79.29519509 43.37479758 80.50482211 44.03496928 81.71435547 44.6953125 C82.98328478 45.36962354 84.25281121 46.04281219 85.52294922 46.71484375 C86.67666016 47.33359375 87.83037109 47.95234375 89.01904297 48.58984375 C91.90501076 49.9783202 91.90501076 49.9783202 94.22998047 49.16015625 C96.44025665 47.43846744 98.38651474 45.60374272 100.33544922 43.58984375 C101.04185547 42.86539063 101.74826172 42.1409375 102.47607422 41.39453125 C103.00716797 40.84023438 103.53826172 40.2859375 104.08544922 39.71484375 C104.74544922 40.04484375 105.40544922 40.37484375 106.08544922 40.71484375 C104.80347656 41.97941406 104.80347656 41.97941406 103.49560547 43.26953125 C102.37958875 44.37616968 101.2637105 45.48294777 100.14794922 46.58984375 C99.30200195 47.42322266 99.30200195 47.42322266 98.43896484 48.2734375 C95.38684894 51.20700085 95.38684894 51.20700085 93.08544922 54.71484375 C89.9187648 54.06932214 87.49127834 52.95777493 84.69873047 51.34375 C83.42811768 50.61369751 83.42811768 50.61369751 82.13183594 49.86889648 C81.22965332 49.34368408 80.3274707 48.81847168 79.39794922 48.27734375 C78.45967285 47.73601807 77.52139648 47.19469238 76.5546875 46.63696289 C69.44856946 42.52958569 62.37240013 38.37140342 55.30419922 34.19921875 C43.60801587 27.30174988 31.83079181 20.54403839 20.02294922 13.83984375 C19.08370605 13.30447998 18.14446289 12.76911621 17.17675781 12.2175293 C14.49011194 10.69684482 11.79083601 9.20188764 9.08544922 7.71484375 C8.1729541 7.19889648 7.26045898 6.68294922 6.3203125 6.15136719 C4.99942627 5.4364209 4.99942627 5.4364209 3.65185547 4.70703125 C2.86883057 4.27503418 2.08580566 3.84303711 1.27905273 3.39794922 C-0.91418555 2.48214385 -0.91418555 2.48214385 -3.08422852 3.42773438 C-5.71812215 5.27992688 -6.91973046 7.57829985 -8.53955078 10.33984375 C-9.6128087 12.16297619 -10.72621811 13.96454095 -11.91455078 15.71484375 C-12.57455078 15.71484375 -13.23455078 15.71484375 -13.91455078 15.71484375 C-12.58326413 11.97266984 -10.93523287 9.14104106 -8.47705078 6.02734375 C-7.58179688 4.87685547 -7.58179688 4.87685547 -6.66845703 3.703125 C-3.00680213 -0.44783791 -3.00680213 -0.44783791 0 0 Z " fill="#999999" transform="translate(220.91455078125,250.28515625)"/>
<path d="M0 0 C1.30185242 -0.00630432 2.60370483 -0.01260864 3.94500732 -0.019104 C5.37382135 -0.01552284 6.80263415 -0.01142053 8.23144531 -0.00683594 C9.69395004 -0.00818314 11.15645433 -0.01012414 12.61895752 -0.01263428 C15.68904877 -0.01558666 18.75902381 -0.01128679 21.82910156 -0.00195312 C25.75430006 0.00940134 29.67922383 0.00290833 33.60441208 -0.00909805 C36.62768599 -0.01634804 39.65089553 -0.01401366 42.67417145 -0.00884247 C44.12057783 -0.00751254 45.56699014 -0.00913057 47.01338959 -0.01380157 C49.04277933 -0.01891365 51.07218966 -0.00973313 53.1015625 0 C54.25468933 0.00159119 55.40781616 0.00318237 56.59588623 0.00482178 C60.07439432 0.27971727 64.2228313 0.67205005 66.80957031 3.25878906 C66.96447704 5.75186326 67.05604316 8.220114 67.10668945 10.71606445 C67.12634262 11.49649612 67.14599579 12.2769278 67.16624451 13.08100891 C67.23035579 15.67273204 67.28755325 18.26456059 67.34472656 20.85644531 C67.38771406 22.64864608 67.43113049 24.4408366 67.47496033 26.23301697 C67.58938966 30.95938892 67.69796701 35.68587816 67.80535889 40.41241455 C67.91588396 45.23173249 68.03189786 50.05091789 68.14746094 54.87011719 C68.37356052 64.33288567 68.59348305 73.79578702 68.80957031 83.25878906 C69.81815094 83.38648682 70.82673157 83.51418457 71.86587524 83.64575195 C73.21382637 83.81999339 74.56175616 83.99439999 75.90966797 84.16894531 C76.57148575 84.25229126 77.23330353 84.33563721 77.91517639 84.42150879 C84.14254889 85.23395139 90.12424529 86.64589624 96.18457031 88.25878906 C100.05781173 89.26573213 103.93292807 90.26502614 107.80957031 91.25878906 C108.6799292 91.48937012 109.55028809 91.71995117 110.44702148 91.95751953 C112.54739916 92.4815056 114.67786556 92.88198326 116.80957031 93.25878906 C119.42063163 91.56962275 119.42063163 91.56962275 120.80957031 89.25878906 C118.93457031 94.13378906 118.93457031 94.13378906 117.80957031 95.25878906 C115.73535156 95.20800781 115.73535156 95.20800781 113.12207031 94.94628906 C112.27257812 94.86765625 111.42308594 94.78902344 110.54785156 94.70800781 C107.48354499 94.20530417 104.74582036 93.2626031 101.80957031 92.25878906 C99.77550781 91.76780846 97.73285759 91.31156405 95.68457031 90.88378906 C93.88052734 90.50480469 93.88052734 90.50480469 92.04003906 90.11816406 C88.85838252 89.46591288 85.67254359 88.83651966 82.48535156 88.21191406 C81.57736816 88.03321777 80.66938477 87.85452148 79.73388672 87.67041016 C77.92310648 87.31536154 76.11158622 86.9640646 74.29931641 86.61669922 C73.47125488 86.45476074 72.64319336 86.29282227 71.79003906 86.12597656 C71.0464917 85.98272949 70.30294434 85.83948242 69.53686523 85.69189453 C67.80957031 85.25878906 67.80957031 85.25878906 66.80957031 84.25878906 C66.65740701 82.82660265 66.57152659 81.38729713 66.51293945 79.94824219 C66.47389999 79.02096313 66.43486053 78.09368408 66.39463806 77.13830566 C66.35754227 76.11587769 66.32044647 75.09344971 66.28222656 74.04003906 C66.24090103 72.97410522 66.1995755 71.90817139 66.15699768 70.80993652 C65.66728166 57.46368675 65.45928319 44.11174314 65.24707031 30.75878906 C65.20372223 28.17024283 65.16010381 25.58170111 65.11621094 22.99316406 C65.01089507 16.74842074 64.90886186 10.50363093 64.80957031 4.25878906 C61.89855426 2.80328103 59.31639833 3.09367916 56.06494141 3.0534668 C55.37214584 3.0435672 54.67935028 3.0336676 53.96556091 3.02346802 C51.67141153 2.99183409 49.37724142 2.9670882 47.08300781 2.94238281 C45.49402319 2.92181491 43.90504407 2.90081848 42.31607056 2.87940979 C38.13053836 2.82417216 33.94495666 2.77477037 29.75933838 2.7265625 C25.48957911 2.67635981 21.21989189 2.62066732 16.95019531 2.56542969 C8.57004787 2.45782743 0.18984021 2.35638708 -8.19042969 2.25878906 C-5.43544533 -0.49619529 -3.85748494 0.00533763 0 0 Z " fill="#767676" transform="translate(484.1904296875,125.7412109375)"/>
<path d="M0 0 C-0.99 0.66 -1.98 1.32 -3 2 C-3 2.99 -3 3.98 -3 5 C-3.59941406 5.28230469 -4.19882812 5.56460937 -4.81640625 5.85546875 C-13.2327905 9.93795385 -21.33786609 14.52046692 -29.46118164 19.15307617 C-46.12865975 28.65760046 -46.12865975 28.65760046 -54.6875 32.875 C-55.51636719 33.28492188 -56.34523438 33.69484375 -57.19921875 34.1171875 C-58.09060547 34.55417969 -58.09060547 34.55417969 -59 35 C-58.67 33.68 -58.34 32.36 -58 31 C-58.99 30.67 -59.98 30.34 -61 30 C-49.43957139 23.42058178 -37.86046937 16.87811856 -26.1875 10.5 C-25.31270996 10.02079102 -24.43791992 9.54158203 -23.53662109 9.04785156 C-19.24499824 6.71143797 -14.93301522 4.41500654 -10.58984375 2.17578125 C-9.79570068 1.76497314 -9.00155762 1.35416504 -8.18334961 0.9309082 C-5.37078555 -0.26827627 -3.0165725 -0.39691743 0 0 Z " fill="#4A4A4A" transform="translate(809,251)"/>
<path d="M0 0 C5.73308366 -0.4010188 9.71758028 0.83192031 14.75 3.375 C15.4831543 3.73295654 16.21630859 4.09091309 16.97167969 4.4597168 C24.87955755 8.3559767 32.66359555 12.49520571 40.44091797 16.64404297 C43.17297632 18.09165336 45.91506829 19.51866718 48.66015625 20.94140625 C49.6027832 21.43084717 50.54541016 21.92028809 51.51660156 22.42456055 C53.33371552 23.36723205 55.15201247 24.30762794 56.97167969 25.24536133 C61.50814123 27.60557119 65.81245544 30.0625707 70 33 C69.01 33.495 69.01 33.495 68 34 C65.46875 32.8203125 65.46875 32.8203125 62.5 31.125 C61.5203125 30.57070312 60.540625 30.01640625 59.53125 29.4453125 C58.6959375 28.96835938 57.860625 28.49140625 57 28 C56.34 27.67 55.68 27.34 55 27 C55 27.66 55 28.32 55 29 C51.10252175 28.27824477 47.79893698 26.48761088 44.3125 24.6875 C35.75100867 20.33284218 27.09610793 16.18145808 18.4309082 12.0378418 C17.39667725 11.54324463 16.36244629 11.04864746 15.296875 10.5390625 C14.37229492 10.09771973 13.44771484 9.65637695 12.49511719 9.20166016 C10.31965245 8.15394612 8.15610285 7.08688274 6 6 C6.33 4.68 6.66 3.36 7 2 C2.85906302 1.79029441 2.85906302 1.79029441 -1 3 C-0.67 2.01 -0.34 1.02 0 0 Z " fill="#404040" transform="translate(646,147)"/>
<path d="M0 0 C13.52054795 11.5890411 13.52054795 11.5890411 15 18 C14.57446809 23.42553191 14.57446809 23.42553191 12 26 C8.04 26.66 4.08 27.32 0 28 C0 18.76 0 9.52 0 0 Z " fill="#FFFFFF" transform="translate(0,996)"/>
<path d="M0 0 C0.33 0 0.66 0 1 0 C1 26.4 1 52.8 1 80 C-8.80877743 82.17972832 -8.80877743 82.17972832 -12.75 82.3125 C-25.47367327 83.31605733 -38.36003933 87.20442198 -50.40625 91.30078125 C-53.17848248 92.048115 -55.15485916 92.45071538 -58 92 C-59.8359375 90.13671875 -59.8359375 90.13671875 -61.375 87.6875 C-62.16003906 86.48673828 -62.16003906 86.48673828 -62.9609375 85.26171875 C-64 83 -64 83 -63 80 C-61.02 83.3 -59.04 86.6 -57 90 C-54.64488281 89.35224609 -54.64488281 89.35224609 -52.2421875 88.69140625 C-16.46473887 78.94276705 -16.46473887 78.94276705 -1 79 C-1.00222061 78.17251755 -1.00444122 77.3450351 -1.00672913 76.49247742 C-1.02685782 68.65220093 -1.04203784 60.81193327 -1.05181217 52.97163677 C-1.05700634 48.94193599 -1.0640402 44.91225675 -1.07543945 40.88256836 C-1.08639257 36.98571883 -1.09230287 33.08888989 -1.09487724 29.19202614 C-1.09670929 27.71346526 -1.10028625 26.23490537 -1.10573006 24.75635338 C-1.13505186 16.45398255 -0.96320761 8.25589947 0 0 Z " fill="#8D8D8D" transform="translate(473,130)"/>
<path d="M0 0 C3.48699532 1.22516052 5.42696748 2.42696748 8 5 C9.71527609 6.00327469 11.43256463 7.00383823 13.171875 7.96484375 C15.88046136 9.49855184 18.42810558 11.24892295 21 13 C22.11375 13.70125 23.2275 14.4025 24.375 15.125 C25.24125 15.74375 26.1075 16.3625 27 17 C27 17.66 27 18.32 27 19 C27.53625 19.061875 28.0725 19.12375 28.625 19.1875 C32.11156962 20.38027382 34.24940393 22.56197166 37 25 C36.39301257 29.12751449 34.96189209 32.3321148 33 36 C32 34 32 34 32.1875 31.5625 C32.28624322 28.90866219 32.28624322 28.90866219 30.3125 27.4375 C29.549375 26.963125 28.78625 26.48875 28 26 C23.12371134 22.37113402 23.12371134 22.37113402 22 19 C20.67976628 18.30775356 19.34350779 17.64591721 18 17 C16.37982748 15.64710084 14.79938255 14.24592557 13.25 12.8125 C9.3581632 9.23824632 5.41699968 5.74336732 1.3984375 2.3125 C0.93695313 1.879375 0.47546875 1.44625 0 1 C0 0.67 0 0.34 0 0 Z " fill="#494949" transform="translate(216,352)"/>
<path d="M0 0 C-0.33 0.598125 -0.66 1.19625 -1 1.8125 C-2.20787988 4.05386471 -2.20787988 4.05386471 -2 7 C-3 10 -3 10 -5.1796875 11.421875 C-6.06914062 11.86015625 -6.95859375 12.2984375 -7.875 12.75 C-8.75929688 13.19859375 -9.64359375 13.6471875 -10.5546875 14.109375 C-13 15 -13 15 -16 14 C-18.14255793 14.38932856 -18.14255793 14.38932856 -20 15 C-20.33 14.34 -20.66 13.68 -21 13 C-29.91 18.445 -29.91 18.445 -39 24 C-39.33 23.34 -39.66 22.68 -40 22 C-18.91501325 8.62041994 -18.91501325 8.62041994 -7.6171875 3.26953125 C-0.87692308 0 -0.87692308 0 0 0 Z " fill="#3E3E3E" transform="translate(338,162)"/>
<path d="M0 0 C-0.99 0.66 -1.98 1.32 -3 2 C-3 2.99 -3 3.98 -3 5 C-3.70382812 5.3403125 -4.40765625 5.680625 -5.1328125 6.03125 C-11.71107272 9.26026546 -18.08570278 12.68383026 -24.36572266 16.45898438 C-27.15002472 18.09934838 -28.70542025 19 -32 19 C-30.48832294 14.76730422 -27.69447201 13.33731903 -24 11 C-23.59265625 10.55140625 -23.1853125 10.1028125 -22.765625 9.640625 C-20.07514219 7.14061885 -16.90021189 5.53905945 -13.6875 3.8125 C-13.03587891 3.44447266 -12.38425781 3.07644531 -11.71289062 2.69726562 C-7.63865351 0.49905361 -4.74823384 -0.44905777 0 0 Z " fill="#3A3A3A" transform="translate(809,251)"/>
<path d="M0 0 C6.21514632 2.23637079 12.02776642 5.02139471 17.86621094 8.10302734 C18.7853125 8.57224609 19.70441406 9.04146484 20.65136719 9.52490234 C31.30534237 15.10629021 31.30534237 15.10629021 34.11621094 20.72802734 C28.09827913 19.1085839 23.0697102 15.98258255 17.74121094 12.85302734 C14.21042081 10.791728 10.67047159 8.74859073 7.11621094 6.72802734 C6.3553418 6.28426758 5.59447266 5.84050781 4.81054688 5.38330078 C2.50585844 4.06171861 2.50585844 4.06171861 -0.88378906 2.72802734 C-5.01306465 4.18541873 -6.33114624 6.64048209 -8.50878906 10.35302734 C-9.58204698 12.17615978 -10.69545639 13.97772454 -11.88378906 15.72802734 C-12.54378906 15.72802734 -13.20378906 15.72802734 -13.88378906 15.72802734 C-12.55250242 11.98585344 -10.90447115 9.15422466 -8.44628906 6.04052734 C-7.55103516 4.89003906 -7.55103516 4.89003906 -6.63769531 3.71630859 C-2.97994299 -0.43023023 -2.97994299 -0.43023023 0 0 Z " fill="#878787" transform="translate(220.8837890625,250.27197265625)"/>
<path d="M0 0 C2.77117304 0.14080555 5.54182641 0.28743118 8.3125 0.4375 C9.49102539 0.49647461 9.49102539 0.49647461 10.69335938 0.55664062 C11.8293457 0.61948242 11.8293457 0.61948242 12.98828125 0.68359375 C14.03302612 0.73858032 14.03302612 0.73858032 15.09887695 0.79467773 C17 1 17 1 20 2 C21.75919531 2.20310613 23.52336373 2.36461868 25.2890625 2.5 C26.82433594 2.62375 26.82433594 2.62375 28.390625 2.75 C30.55464118 2.91726695 32.71870418 3.08392934 34.8828125 3.25 C35.90375 3.3325 36.9246875 3.415 37.9765625 3.5 C39.38542725 3.60828125 39.38542725 3.60828125 40.82275391 3.71875 C43 4 43 4 44 5 C44.07179964 6.51928038 44.08392007 8.04167482 44.0625 9.5625 C44.05347656 10.38878906 44.04445312 11.21507812 44.03515625 12.06640625 C44.02355469 12.70449219 44.01195312 13.34257813 44 14 C43.67 14 43.34 14 43 14 C42.505 11.03 42.505 11.03 42 8 C41.42668945 7.9498877 40.85337891 7.89977539 40.26269531 7.84814453 C11.81444637 5.33196367 11.81444637 5.33196367 0 1 C0 0.67 0 0.34 0 0 Z " fill="#545454" transform="translate(180,530)"/>
<path d="M0 0 C3.04094261 1.11099156 4.30259953 2.93872886 5.87109375 5.68359375 C5.87109375 6.67359375 5.87109375 7.66359375 5.87109375 8.68359375 C-0.39890625 8.68359375 -6.66890625 8.68359375 -13.12890625 8.68359375 C-10.36015198 1.76170807 -7.50561481 -1.37626585 0 0 Z " fill="#25282E" transform="translate(573.12890625,620.31640625)"/>
<path d="M0 0 C0.33 0 0.66 0 1 0 C1.10560673 8.06131371 1.0260571 16.07564323 0.5625 24.125 C0.52326416 24.83454834 0.48402832 25.54409668 0.44360352 26.27514648 C0.27299625 29.01828863 0.06332416 31.68945097 -0.48632812 34.38500977 C-1.02037212 37.10370997 -1.30383792 39.75913256 -1.53515625 42.51953125 C-1.62216797 43.54111328 -1.70917969 44.56269531 -1.79882812 45.61523438 C-1.88583984 46.67033203 -1.97285156 47.72542969 -2.0625 48.8125 C-2.15337891 49.88693359 -2.24425781 50.96136719 -2.33789062 52.06835938 C-2.5611345 54.71203682 -2.78175029 57.35590636 -3 60 C-3.66 60 -4.32 60 -5 60 C-4.53009651 47.71769509 -3.58226598 35.49092502 -2.5 23.25 C-2.43428802 22.50034973 -2.36857605 21.75069946 -2.3008728 20.97833252 C-2.10938854 18.80302609 -1.9147522 16.6280286 -1.71875 14.453125 C-1.54762695 12.55288574 -1.54762695 12.55288574 -1.37304688 10.61425781 C-1.00565025 7.05474233 -0.5306506 3.53805023 0 0 Z " fill="#7D7D7D" transform="translate(129,464)"/>
<path d="M0 0 C3.24843942 3.04295889 5.14807762 6.62302104 7.25 10.5 C10.47847024 16.35560407 13.8557281 22.05033956 17.5 27.66015625 C19.45553349 30.71058479 21.22389129 33.84247341 23 37 C23.66 37.99 24.32 38.98 25 40 C24.79473317 42.67373203 24.23051775 43.75897904 22.37109375 45.703125 C21.41396484 46.46882813 21.41396484 46.46882813 20.4375 47.25 C19.47650391 48.03117187 19.47650391 48.03117187 18.49609375 48.828125 C18.00238281 49.21484375 17.50867188 49.6015625 17 50 C16.34 49.67 15.68 49.34 15 49 C15.9520721 47.99403703 16.91187346 46.99538437 17.875 46 C18.40867187 45.443125 18.94234375 44.88625 19.4921875 44.3125 C21 43 21 43 23 43 C20.58321101 37.85118868 17.82929721 32.98204328 14.875 28.125 C11.28379906 22.20704128 7.81640582 16.2293083 4.4375 10.1875 C3.77500244 9.0130835 3.77500244 9.0130835 3.09912109 7.81494141 C2.69387207 7.08581543 2.28862305 6.35668945 1.87109375 5.60546875 C1.50943115 4.95731201 1.14776855 4.30915527 0.77514648 3.64135742 C0 2 0 2 0 0 Z " fill="#646464" transform="translate(322,232)"/>
<path d="M0 0 C-1.48599439 4.15000506 -3.52320624 7.63036482 -5.9375 11.3125 C-6.97197266 12.91544922 -6.97197266 12.91544922 -8.02734375 14.55078125 C-9.00380859 15.76314453 -9.00380859 15.76314453 -10 17 C-10.99 17 -11.98 17 -13 17 C-14.62317557 19.00105103 -14.62317557 19.00105103 -16.0625 21.5 C-17.59765625 24.03125 -17.59765625 24.03125 -19 26 C-19.66 26 -20.32 26 -21 26 C-19.61821263 22.18461696 -17.86310038 19.02708119 -15.5625 15.6875 C-14.96566406 14.80449219 -14.36882812 13.92148437 -13.75390625 13.01171875 C-13.17511719 12.34785156 -12.59632813 11.68398438 -12 11 C-11.01 11 -10.02 11 -9 11 C-8.731875 10.278125 -8.46375 9.55625 -8.1875 8.8125 C-4.46666667 0 -4.46666667 0 0 0 Z " fill="#3B3B3B" transform="translate(218,255)"/>
<path d="M0 0 C0.33 0 0.66 0 1 0 C1 5.94 1 11.88 1 18 C-1.31 18 -3.62 18 -6 18 C-5.31583566 13.82423832 -3.98634991 10.11919593 -2.4375 6.1875 C-1.75494141 4.44533203 -1.75494141 4.44533203 -1.05859375 2.66796875 C-0.70925781 1.78753906 -0.35992188 0.90710938 0 0 Z " fill="#FFFFFF" transform="translate(1023,1006)"/>
<path d="M0 0 C-0.95790837 3.55881147 -1.65866822 4.78205824 -4.8203125 6.80078125 C-5.91085937 7.29964844 -7.00140625 7.79851562 -8.125 8.3125 C-9.22070312 8.82425781 -10.31640625 9.33601563 -11.4453125 9.86328125 C-12.28835938 10.23839844 -13.13140625 10.61351562 -14 11 C-13.67 9.68 -13.34 8.36 -13 7 C-13.99 6.67 -14.98 6.34 -16 6 C-11.01618157 2.9486826 -6.03093668 0 0 0 Z " fill="#2D2D2D" transform="translate(764,275)"/>
<path d="M0 0 C0.33 0.66 0.66 1.32 1 2 C-0.6255919 4.82597111 -2.37594005 7.51058742 -4.1953125 10.21289062 C-5.202412 11.76403513 -6.10834094 13.3797399 -7 15 C-6.67 15.99 -6.34 16.98 -6 18 C-7.07254877 20.51698632 -8.54803452 22.66805545 -10 25 C-10.33 24.01 -10.66 23.02 -11 22 C-11.66 22 -12.32 22 -13 22 C-13.268125 22.763125 -13.53625 23.52625 -13.8125 24.3125 C-14.94424112 26.87380884 -15.91223401 28.19692938 -18 30 C-16.37110183 25.33049192 -13.88919626 21.39549778 -11.25 17.25 C-10.80479004 16.54423828 -10.35958008 15.83847656 -9.90087891 15.11132812 C-6.6794289 10.02150723 -3.39866047 4.97364947 0 0 Z " fill="#656565" transform="translate(196,281)"/>
<path d="M0 0 C-0.33 0.66 -0.66 1.32 -1 2 C-0.34 2 0.32 2 1 2 C1 2.99 1 3.98 1 5 C-2.09319586 5.85329541 -4.79336115 6 -8 6 C-8.33 5.34 -8.66 4.68 -9 4 C-14.94 7.63 -20.88 11.26 -27 15 C-27.33 14.34 -27.66 13.68 -28 13 C-25.17390917 11.21740974 -22.33791746 9.45119008 -19.5 7.6875 C-18.70851563 7.18798828 -17.91703125 6.68847656 -17.1015625 6.17382812 C-3.94110577 -1.97055288 -3.94110577 -1.97055288 0 0 Z " fill="#4F4F4F" transform="translate(326,171)"/>
<path d="M0 0 C7.81524149 0.28945339 14.14217369 3.17669563 19.74609375 8.73046875 C20.89578376 10.1016288 21.95994624 11.54392474 23 13 C17.50434318 11.46367421 12.97905386 8.84581871 8.125 5.9375 C7.34125 5.47794922 6.5575 5.01839844 5.75 4.54492188 C1.50437107 2.02639112 1.50437107 2.02639112 0 1 C0 0.67 0 0.34 0 0 Z " fill="#7A797A" transform="translate(232,258)"/>
<path d="M0 0 C4.12684994 0.68263683 7.49754564 2.80932551 11.0625 4.875 C11.68705078 5.22691406 12.31160156 5.57882812 12.95507812 5.94140625 C15.98922423 7.6835307 18.7070224 9.32905906 21 12 C15.39613615 12.88482061 11.91951399 10.63057448 7.34765625 7.734375 C4.26791348 5.45915738 2.21884977 3.10638968 0 0 Z " fill="#878787" transform="translate(250,266)"/>
<path d="M0 0 C0.27328125 0.56589844 0.5465625 1.13179687 0.828125 1.71484375 C2.03653423 4.07124175 3.366367 6.30479776 4.75 8.5625 C7.54796631 13.18463062 10.15369406 17.88929401 12.703125 22.65234375 C14.04261565 25.15407049 14.04261565 25.15407049 16 28 C16 28.99 16 29.98 16 31 C15.34 31 14.68 31 14 31 C12.01872144 27.37356285 10.04340362 23.74394998 8.07348633 20.11132812 C7.40290637 18.87672257 6.73072124 17.64298744 6.05688477 16.41015625 C5.08706033 14.63512703 4.12353098 12.85666296 3.16015625 11.078125 C2.57886963 10.00981445 1.99758301 8.94150391 1.39868164 7.84082031 C0.24485388 5.49731537 -0.63273535 3.57496236 -1 1 C-0.67 0.67 -0.34 0.34 0 0 Z " fill="#7E7E7E" transform="translate(297,186)"/>
<path d="M0 0 C3.48699532 1.22516052 5.42696748 2.42696748 8 5 C10.28978567 6.42532726 12.63213883 7.70437785 15 9 C15 9.99 15 10.98 15 12 C15.99 12.33 16.98 12.66 18 13 C19.39712274 14.95597184 20.73779907 16.95436401 22 19 C18.49172085 17.47920927 16.04728354 15.4004327 13.25 12.8125 C9.3581632 9.23824632 5.41699968 5.74336732 1.3984375 2.3125 C0.93695313 1.879375 0.47546875 1.44625 0 1 C0 0.67 0 0.34 0 0 Z " fill="#7F7F7F" transform="translate(216,352)"/>
<path d="M0 0 C0.66 0.33 1.32 0.66 2 1 C1.14535156 1.84304688 0.29070312 2.68609375 -0.58984375 3.5546875 C-1.70586047 4.66132593 -2.82173872 5.76810402 -3.9375 6.875 C-4.50146484 7.43058594 -5.06542969 7.98617188 -5.64648438 8.55859375 C-8.69860028 11.4921571 -8.69860028 11.4921571 -11 15 C-14.48539917 14.35455571 -17.02819057 12.89865603 -20 11 C-17.49456919 10.22909821 -15.83376295 10.01662371 -13.1875 10.28125 C-8.83580084 9.89727654 -7.54824405 8.16026384 -4.625 5 C-3.75101562 4.071875 -2.87703125 3.14375 -1.9765625 2.1875 C-1.32429688 1.465625 -0.67203125 0.74375 0 0 Z " fill="#8B8B8B" transform="translate(325,290)"/>
<path d="M0 0 C5.25278515 -0.65659814 8.1524079 0.92650156 12.4609375 3.61328125 C12.96882813 4.07089844 13.47671875 4.52851563 14 5 C14 5.99 14 6.98 14 8 C14.639375 8.12375 15.27875 8.2475 15.9375 8.375 C16.618125 8.58125 17.29875 8.7875 18 9 C18.33 9.66 18.66 10.32 19 11 C14.25652774 9.62309544 10.27474838 7.56160559 6.125 4.9375 C5.53203125 4.57333984 4.9390625 4.20917969 4.328125 3.83398438 C2.86464287 2.9218371 1.4292745 1.96486632 0 1 C0 0.67 0 0.34 0 0 Z " fill="#818181" transform="translate(267,278)"/>
<path d="M0 0 C0.99 0.33 1.98 0.66 3 1 C3 1.66 3 2.32 3 3 C3.515625 3.103125 4.03125 3.20625 4.5625 3.3125 C7.86026435 4.24263866 10.86633332 5.61395512 14 7 C13.71872579 8.48117801 13.42466268 9.95993249 13.125 11.4375 C12.96257812 12.26121094 12.80015625 13.08492188 12.6328125 13.93359375 C12.42398438 14.61550781 12.21515625 15.29742187 12 16 C11.34 16.33 10.68 16.66 10 17 C10.0825 15.906875 10.165 14.81375 10.25 13.6875 C10.40866946 10.03873703 10.40866946 10.03873703 8.3125 8.3125 C7.549375 7.879375 6.78625 7.44625 6 7 C1.12371134 3.37113402 1.12371134 3.37113402 0 0 Z " fill="#929292" transform="translate(238,371)"/>
<path d="M0 0 C6.15532564 0.50247556 11.90093933 1.96623187 17.80688477 3.71582031 C21.88585806 4.88446504 21.88585806 4.88446504 26 4 C27.66710346 2.50014391 27.66710346 2.50014391 29 1 C27.125 5.875 27.125 5.875 26 7 C20.39882963 6.86287154 15.24482437 5.98137809 10 4 C8.783125 3.67 7.56625 3.34 6.3125 3 C3 2 3 2 0 0 Z " fill="#8E8E8E" transform="translate(576,214)"/>
<path d="M0 0 C0.33 0.66 0.66 1.32 1 2 C1.99 2.33 2.98 2.66 4 3 C3.01 4.98 2.02 6.96 1 9 C0.01 8.67 -0.98 8.34 -2 8 C-2.33 9.65 -2.66 11.3 -3 13 C-3.66 13 -4.32 13 -5 13 C-4.54996653 7.37458159 -3.31558515 4.38512875 0 0 Z " fill="#505050" transform="translate(177,311)"/>
<path d="M0 0 C2.64 0.66 5.28 1.32 8 2 C8.33 3.32 8.66 4.64 9 6 C0 4 0 4 -9 2 C-9 1.67 -9 1.34 -9 1 C-6.03 1.33 -3.06 1.66 0 2 C0 1.34 0 0.68 0 0 Z " fill="#2B2B2B" transform="translate(589,218)"/>
<path d="M0 0 C2.91517292 1.07401108 4.77810176 1.77810176 7 4 C7 4.99 7 5.98 7 7 C7.598125 7.28875 8.19625 7.5775 8.8125 7.875 C11 9 11 9 14 11 C13.67 11.66 13.34 12.32 13 13 C12.01 12.67 11.02 12.34 10 12 C10 11.34 10 10.68 10 10 C9.4225 9.773125 8.845 9.54625 8.25 9.3125 C5.43572387 7.67083893 3.97262267 5.56440947 2 3 C1.34 2.67 0.68 2.34 0 2 C0 1.34 0 0.68 0 0 Z " fill="#545454" transform="translate(231,362)"/>
<path d="M0 0 C-1.26704387 2.53408774 -2.43123157 2.93209972 -4.9375 4.1875 C-5.64777344 4.55230469 -6.35804688 4.91710937 -7.08984375 5.29296875 C-7.72019531 5.52628906 -8.35054687 5.75960938 -9 6 C-9.66 5.67 -10.32 5.34 -11 5 C-9.96508351 2.17750049 -9.30084735 1.16625774 -6.625 -0.3125 C-3.89420147 -1.02770914 -2.60810739 -0.9659657 0 0 Z " fill="#232323" transform="translate(807,254)"/>
<path d="M0 0 C0.66 0 1.32 0 2 0 C2.33 0.99 2.66 1.98 3 3 C1.78515625 5.04296875 1.78515625 5.04296875 0.0625 7.1875 C-0.50339844 7.90292969 -1.06929687 8.61835938 -1.65234375 9.35546875 C-2.09707031 9.89816406 -2.54179688 10.44085938 -3 11 C-4.22419163 7.06204091 -3.48320272 4.83887763 -2 1 C-1.34 1 -0.68 1 0 1 C0 0.67 0 0.34 0 0 Z " fill="#3F3F3F" transform="translate(719,187)"/>
<path d="M0 0 C5.47932789 1.54545146 10.11429181 4.15543212 15 7 C12 8 12 8 9.75 7.375 C6.23511251 5.61755625 3.03072218 3.506678 0 1 C0 0.67 0 0.34 0 0 Z " fill="#A5A5A5" transform="translate(297,293)"/>
<path d="M0 0 C6.05537521 0.30276876 9.51483458 3.27754038 14 7 C10.27792613 7 8.53604411 5.82035432 5.3125 4 C4.31863281 3.443125 3.32476562 2.88625 2.30078125 2.3125 C1.54152344 1.879375 0.78226562 1.44625 0 1 C0 0.67 0 0.34 0 0 Z " fill="#666666" transform="translate(291,292)"/>
<path d="M0 0 C0.33 0.66 0.66 1.32 1 2 C1.66 2.33 2.32 2.66 3 3 C1.02 5.97 1.02 5.97 -1 9 C-1.66 8.01 -2.32 7.02 -3 6 C-2.01 4.02 -1.02 2.04 0 0 Z " fill="#242424" transform="translate(197,281)"/>
<path d="M0 0 C2.97 0.495 2.97 0.495 6 1 C6 1.99 6 2.98 6 4 C5.4225 3.814375 4.845 3.62875 4.25 3.4375 C1.79307475 2.95976454 0.35602466 3.24270636 -2 4 C-1.34 2.68 -0.68 1.36 0 0 Z " fill="#323232" transform="translate(362,150)"/>
<path d="M0 0 C1.32 0.33 2.64 0.66 4 1 C2.02 3.97 2.02 3.97 0 7 C-0.99 6.67 -1.98 6.34 -3 6 C-2.01 4.02 -1.02 2.04 0 0 Z " fill="#1A1A1A" transform="translate(191,291)"/>
<path d="M0 0 C4.61513112 1.31860889 8.09897612 3.21355437 12 6 C10.3125 6.6875 10.3125 6.6875 8 7 C5.25 5.6875 5.25 5.6875 3 4 C3 3.34 3 2.68 3 2 C2.01 1.67 1.02 1.34 0 1 C0 0.67 0 0.34 0 0 Z " fill="#AAAAAA" transform="translate(259,271)"/>
<path d="M0 0 C4.96916636 0.51405169 9.29026351 1.23384882 14 3 C9.98556871 4.60577252 6.95365173 3.36580696 3 2 C2.01 1.34 1.02 0.68 0 0 Z " fill="#838383" transform="translate(576,214)"/>
<path d="M0 0 C0.66 0 1.32 0 2 0 C2.36923077 4.55384615 2.36923077 4.55384615 0.5 6.8125 C0.005 7.204375 -0.49 7.59625 -1 8 C-1.66 7.67 -2.32 7.34 -3 7 C-1.125 2.25 -1.125 2.25 0 0 Z " fill="#121212" transform="translate(183,303)"/>
<path d="M0 0 C0.33 0 0.66 0 1 0 C1 5.94 1 11.88 1 18 C0.67 18 0.34 18 0 18 C0 12.06 0 6.12 0 0 Z " fill="#ADADAD" transform="translate(551,865)"/>
<path d="M0 0 C0.33 0.99 0.66 1.98 1 3 C0.01 4.485 0.01 4.485 -1 6 C-2.32 4.35 -3.64 2.7 -5 1 C-3.35 0.67 -1.7 0.34 0 0 Z " fill="#FFFFFF" transform="translate(110,176)"/>
<path d="M0 0 C0.99 0 1.98 0 3 0 C3 0.66 3 1.32 3 2 C2.34 2 1.68 2 1 2 C1 3.65 1 5.3 1 7 C0.34 7 -0.32 7 -1 7 C-1.04254356 5.00045254 -1.04080783 2.99958364 -1 1 C-0.67 0.67 -0.34 0.34 0 0 Z " fill="#4B4B4B" transform="translate(138,435)"/>
<path d="M0 0 C3.35595828 0.59927826 5.37801226 1.84622436 8 4 C7.67 4.66 7.34 5.32 7 6 C6.01 5.67 5.02 5.34 4 5 C4 4.34 4 3.68 4 3 C2.68 2.34 1.36 1.68 0 1 C0 0.67 0 0.34 0 0 Z " fill="#767676" transform="translate(237,369)"/>
<path d="M0 0 C4.75 0.875 4.75 0.875 7 2 C7 2.66 7 3.32 7 4 C7.66 4.33 8.32 4.66 9 5 C5.51694958 4.35499066 2.93797836 2.95865224 0 1 C0 0.67 0 0.34 0 0 Z " fill="#606060" transform="translate(305,300)"/>
<path d="M0 0 C1.32 0.66 2.64 1.32 4 2 C3.67 2.99 3.34 3.98 3 5 C1.68 5 0.36 5 -1 5 C-0.67 3.35 -0.34 1.7 0 0 Z " fill="#5C5C5C" transform="translate(648,149)"/>
<path d="M0 0 C0.99 0.33 1.98 0.66 3 1 C1.68 1.33 0.36 1.66 -1 2 C-0.67 1.34 -0.34 0.68 0 0 Z " fill="#FFFFFF" transform="translate(951,200)"/>
<path d="M0 0 C0.99 0.33 1.98 0.66 3 1 C2.01 1.66 1.02 2.32 0 3 C0 2.01 0 1.02 0 0 Z " fill="#FFFFFF" transform="translate(843,136)"/>
<path d="M0 0 C0.33 0 0.66 0 1 0 C1 1.65 1 3.3 1 5 C0.67 5 0.34 5 0 5 C0 3.35 0 1.7 0 0 Z " fill="#A9A9A9" transform="translate(473,834)"/>
<path d="M0 0 C0.99 1.485 0.99 1.485 2 3 C1.34 3 0.68 3 0 3 C0 2.01 0 1.02 0 0 Z " fill="#FFFFFF" transform="translate(35,375)"/>
<path d="" fill="#A8A8A8" transform="translate(0,0)"/>
<path d="M0 0 C3 1 3 1 3 1 Z " fill="#A6A6A6" transform="translate(883,529)"/>
<path d="M0 0 C0.33 0.66 0.66 1.32 1 2 C0.34 1.67 -0.32 1.34 -1 1 C-0.67 0.67 -0.34 0.34 0 0 Z " fill="#FFFFFF" transform="translate(144,158)"/>
<path d="M0 0 C2 1 2 1 2 1 Z " fill="#FFFFFF" transform="translate(158,900)"/>
<path d="" fill="#A4A4A4" transform="translate(0,0)"/>
<path d="" fill="#A0A0A0" transform="translate(0,0)"/>
<path d="" fill="#A8A8A8" transform="translate(0,0)"/>
<path d="" fill="#BABABA" transform="translate(0,0)"/>
<path d="" fill="#FFFFFF" transform="translate(0,0)"/>
<path d="" fill="#FFFFFF" transform="translate(0,0)"/>
<path d="" fill="#FFFFFF" transform="translate(0,0)"/>
<path d="" fill="#FFFFFF" transform="translate(0,0)"/>
<path d="" fill="#FFFFFF" transform="translate(0,0)"/>
<path d="" fill="#FFFFFF" transform="translate(0,0)"/>
<path d="" fill="#FFFFFF" transform="translate(0,0)"/>
<path d="" fill="#FFFFFF" transform="translate(0,0)"/>
<path d="" fill="#FFFFFF" transform="translate(0,0)"/>
<path d="" fill="#FFFFFF" transform="translate(0,0)"/>
<path d="" fill="#969696" transform="translate(0,0)"/>
<path d="" fill="#A1A1A1" transform="translate(0,0)"/>
<path d="" fill="#BABABA" transform="translate(0,0)"/>
<path d="" fill="#FFFFFF" transform="translate(0,0)"/>
<path d="" fill="#B9B9B9" transform="translate(0,0)"/>
<path d="" fill="#B9B9B9" transform="translate(0,0)"/>
<path d="" fill="#A1A1A1" transform="translate(0,0)"/>
<path d="" fill="#B9B9B9" transform="translate(0,0)"/>
<path d="" fill="#BABABA" transform="translate(0,0)"/>
<path d="" fill="#8A8A8A" transform="translate(0,0)"/>
<path d="" fill="#BABABA" transform="translate(0,0)"/>
<path d="" fill="#969696" transform="translate(0,0)"/>
<path d="" fill="#B9B9B9" transform="translate(0,0)"/>
<path d="" fill="#B2B2B2" transform="translate(0,0)"/>
<path d="" fill="#AAAAAA" transform="translate(0,0)"/>
<path d="" fill="#BABABA" transform="translate(0,0)"/>
<path d="" fill="#969696" transform="translate(0,0)"/>
<path d="" fill="#B9B9B9" transform="translate(0,0)"/>
<path d="" fill="#BABABA" transform="translate(0,0)"/>
<path d="" fill="#969696" transform="translate(0,0)"/>
<path d="" fill="#A1A1A1" transform="translate(0,0)"/>
<path d="" fill="#FFFFFF" transform="translate(0,0)"/>
<path d="" fill="#AAAAAA" transform="translate(0,0)"/>
<path d="" fill="#AAAAAA" transform="translate(0,0)"/>
<path d="" fill="#B9B9B9" transform="translate(0,0)"/>
<path d="" fill="#AAAAAA" transform="translate(0,0)"/>
<path d="" fill="#BABABA" transform="translate(0,0)"/>
<path d="" fill="#BABABA" transform="translate(0,0)"/>
<path d="" fill="#AAAAAA" transform="translate(0,0)"/>
<path d="" fill="#AFAFAF" transform="translate(0,0)"/>
<path d="" fill="#BFBFBF" transform="translate(0,0)"/>
<path d="" fill="#BCBCBC" transform="translate(0,0)"/>
<path d="" fill="#B2B2B2" transform="translate(0,0)"/>
<path d="" fill="#BFBFBF" transform="translate(0,0)"/>
<path d="" fill="#BCBCBC" transform="translate(0,0)"/>
<path d="" fill="#AAAAAA" transform="translate(0,0)"/>
<path d="" fill="#B8B8B8" transform="translate(0,0)"/>
<path d="" fill="#B2B2B2" transform="translate(0,0)"/>
<path d="" fill="#A0A0A0" transform="translate(0,0)"/>
<path d="" fill="#AAAAAA" transform="translate(0,0)"/>
<path d="" fill="#BFBFBF" transform="translate(0,0)"/>
<path d="" fill="#BCBCBC" transform="translate(0,0)"/>
<path d="" fill="#BFBFBF" transform="translate(0,0)"/>
<path d="" fill="#A0A0A0" transform="translate(0,0)"/>
<path d="" fill="#AFAFAF" transform="translate(0,0)"/>
<path d="" fill="#B0B0B0" transform="translate(0,0)"/>
<path d="" fill="#AAAAAA" transform="translate(0,0)"/>
<path d="" fill="#B5B5B5" transform="translate(0,0)"/>
<path d="" fill="#BCBCBC" transform="translate(0,0)"/>
<path d="" fill="#B5B5B5" transform="translate(0,0)"/>
<path d="" fill="#AAAAAA" transform="translate(0,0)"/>
<path d="" fill="#BFBFBF" transform="translate(0,0)"/>
<path d="" fill="#969696" transform="translate(0,0)"/>
<path d="" fill="#AFAFAF" transform="translate(0,0)"/>
<path d="" fill="#A1A1A1" transform="translate(0,0)"/>
<path d="" fill="#AAAAAA" transform="translate(0,0)"/>
<path d="" fill="#A5A5A5" transform="translate(0,0)"/>
<path d="" fill="#BABABA" transform="translate(0,0)"/>
<path d="" fill="#B2B2B2" transform="translate(0,0)"/>
<path d="" fill="#FFFFFF" transform="translate(0,0)"/>
<path d="" fill="#FFFFFF" transform="translate(0,0)"/>
<path d="" fill="#FFFFFF" transform="translate(0,0)"/>
<path d="" fill="#FFFFFF" transform="translate(0,0)"/>
<path d="" fill="#FFFFFF" transform="translate(0,0)"/>
<path d="" fill="#FFFFFF" transform="translate(0,0)"/>
<path d="" fill="#BABABA" transform="translate(0,0)"/>
<path d="" fill="#FFFFFF" transform="translate(0,0)"/>
<path d="" fill="#FFFFFF" transform="translate(0,0)"/>
<path d="" fill="#A7A7A7" transform="translate(0,0)"/>
<path d="" fill="#FFFFFF" transform="translate(0,0)"/>
<path d="" fill="#FFFFFF" transform="translate(0,0)"/>
<path d="" fill="#FFFFFF" transform="translate(0,0)"/>
<path d="" fill="#FFFFFF" transform="translate(0,0)"/>
<path d="" fill="#FFFFFF" transform="translate(0,0)"/>
<path d="" fill="#FFFFFF" transform="translate(0,0)"/>
<path d="" fill="#A0A0A0" transform="translate(0,0)"/>
<path d="" fill="#FFFFFF" transform="translate(0,0)"/>
<path d="" fill="#FFFFFF" transform="translate(0,0)"/>
<path d="" fill="#969696" transform="translate(0,0)"/>
<path d="" fill="#B4B4B4" transform="translate(0,0)"/>
<path d="" fill="#B4B4B4" transform="translate(0,0)"/>
<path d="" fill="#FFFFFF" transform="translate(0,0)"/>
<path d="" fill="#FFFFFF" transform="translate(0,0)"/>
<path d="" fill="#FFFFFF" transform="translate(0,0)"/>
<path d="" fill="#FFFFFF" transform="translate(0,0)"/>
<path d="" fill="#C0C0C0" transform="translate(0,0)"/>
<path d="" fill="#FFFFFF" transform="translate(0,0)"/>
<path d="" fill="#FFFFFF" transform="translate(0,0)"/>
<path d="" fill="#FFFFFF" transform="translate(0,0)"/>
<path d="" fill="#FFFFFF" transform="translate(0,0)"/>
<path d="" fill="#FFFFFF" transform="translate(0,0)"/>
</svg>
